<svg id="visual" viewBox="0 0 1280 960" width="1280" height="960" xmlns="http://www.w3.org/2000/svg" xmlns:xlink="http://www.w3.org/1999/xlink" version="1.1"><path d="M0 860L17.8 843.2C35.7 826.3 71.3 792.7 106.8 782.3C142.3 772 177.7 785 213.2 773C248.7 761 284.3 724 320 706.2C355.7 688.3 391.3 689.7 426.8 719.3C462.3 749 497.7 807 533.2 825.2C568.7 843.3 604.3 821.7 640 817.5C675.7 813.3 711.3 826.7 746.8 807.7C782.3 788.7 817.7 737.3 853.2 704.7C888.7 672 924.3 658 960 682.7C995.7 707.3 1031.3 770.7 1066.8 775.5C1102.3 780.3 1137.7 726.7 1173.2 712.3C1208.7 698 1244.3 723 1262.2 735.5L1280 748L1280 961L1262.2 961C1244.3 961 1208.7 961 1173.2 961C1137.7 961 1102.3 961 1066.8 961C1031.3 961 995.7 961 960 961C924.3 961 888.7 961 853.2 961C817.7 961 782.3 961 746.8 961C711.3 961 675.7 961 640 961C604.3 961 568.7 961 533.2 961C497.7 961 462.3 961 426.8 961C391.3 961 355.7 961 320 961C284.3 961 248.7 961 213.2 961C177.7 961 142.3 961 106.8 961C71.3 961 35.7 961 17.8 961L0 961Z" fill="#5B41D6" stroke-linecap="round" stroke-linejoin="miter"></path></svg>