<?xml version="1.0" encoding="utf-8"?>
<!-- Generator: Adobe Illustrator 24.1.0, SVG Export Plug-In . SVG Version: 6.00 Build 0)  -->
<svg version="1.1" id="visual" xmlns="http://www.w3.org/2000/svg" xmlns:xlink="http://www.w3.org/1999/xlink" x="0px" y="0px"
	 viewBox="0 0 2560 1440" style="enable-background:new 0 0 2560 1440;" xml:space="preserve">
<style type="text/css">
	.st0{fill:#9C86FB;}
</style>
<path class="st0" d="M0,789l38.8-2.7c38.9-2.6,116.5-8,194,3.2s154.9,38.8,232.4,75s155.1,80.8,232.8,95.8s155.3,0.4,233-17.3
	s155.3-38.3,232.8-57.3s154.9-36.4,232.4-77.4S1551.3,702.7,1629,713s155.3,95.7,233,116.2s155.3-23.9,232.8-6.4
	s154.9,96.9,232.4,115.4s155.1-23.9,194-45L2560,872v569h-38.8c-38.9,0-116.5,0-194,0s-154.9,0-232.4,0s-155.1,0-232.8,0
	s-155.3,0-233,0s-155.3,0-232.8,0s-154.9,0-232.4,0s-155.1,0-232.8,0s-155.3,0-233,0s-155.3,0-232.8,0s-154.9,0-232.4,0
	s-155.1,0-194,0H0V789z"/>
</svg>
