<?xml version="1.0" encoding="utf-8"?>
<!-- Generator: Adobe Illustrator 24.1.0, SVG Export Plug-In . SVG Version: 6.00 Build 0)  -->
<svg version="1.1" id="visual" xmlns="http://www.w3.org/2000/svg" xmlns:xlink="http://www.w3.org/1999/xlink" x="0px" y="0px"
	 viewBox="0 0 2560 1440" style="enable-background:new 0 0 2560 1440;" xml:space="preserve">
<style type="text/css">
	.st0{fill:#5B41D6;}
</style>
<path class="st0" d="M0,1326l38.8-20.8c38.9-20.9,116.5-62.5,194-90s154.9-40.9,232.4-60.4s155.1-45.1,232.8-43.1
	s155.3,31.6,233,53.5c77.7,21.8,155.3,35.8,232.8,35.3s154.9-15.5,232.4-43s155.1-67.5,232.8-77.8c77.7-10.4,155.3,9,233,43.3
	s155.3,83.7,232.8,86.7s154.9-40.4,232.4-63c77.5-22.7,155.1-24.7,194-25.7l38.8-1v320h-38.8c-38.9,0-116.5,0-194,0
	s-154.9,0-232.4,0s-155.1,0-232.8,0s-155.3,0-233,0s-155.3,0-232.8,0s-154.9,0-232.4,0s-155.1,0-232.8,0s-155.3,0-233,0
	s-155.3,0-232.8,0s-154.9,0-232.4,0s-155.1,0-194,0H0V1326z"/>
</svg>
