<svg id="visual" viewBox="0 0 1280 960" width="1280" height="960" xmlns="http://www.w3.org/2000/svg" xmlns:xlink="http://www.w3.org/1999/xlink" version="1.1"><path d="M0 704L17.8 676.2C35.7 648.3 71.3 592.7 106.8 594.2C142.3 595.7 177.7 654.3 213.2 634C248.7 613.7 284.3 514.3 320 461.8C355.7 409.3 391.3 403.7 426.8 447C462.3 490.3 497.7 582.7 533.2 608C568.7 633.3 604.3 591.7 640 593.5C675.7 595.3 711.3 640.7 746.8 640.5C782.3 640.3 817.7 594.7 853.2 566C888.7 537.3 924.3 525.7 960 516.7C995.7 507.7 1031.3 501.3 1066.8 526.7C1102.3 552 1137.7 609 1173.2 648.7C1208.7 688.3 1244.3 710.7 1262.2 721.8L1280 733L1280 961L1262.2 961C1244.3 961 1208.7 961 1173.2 961C1137.7 961 1102.3 961 1066.8 961C1031.3 961 995.7 961 960 961C924.3 961 888.7 961 853.2 961C817.7 961 782.3 961 746.8 961C711.3 961 675.7 961 640 961C604.3 961 568.7 961 533.2 961C497.7 961 462.3 961 426.8 961C391.3 961 355.7 961 320 961C284.3 961 248.7 961 213.2 961C177.7 961 142.3 961 106.8 961C71.3 961 35.7 961 17.8 961L0 961Z" fill="#856BF8" stroke-linecap="round" stroke-linejoin="miter"></path></svg>