<?xml version="1.0" encoding="utf-8"?>
<!-- Generator: Adobe Illustrator 24.1.0, SVG Export Plug-In . SVG Version: 6.00 Build 0)  -->
<svg version="1.1" id="visual" xmlns="http://www.w3.org/2000/svg" xmlns:xlink="http://www.w3.org/1999/xlink" x="0px" y="0px"
	 viewBox="0 0 2560 1440" style="enable-background:new 0 0 2560 1440;" xml:space="preserve">
<style type="text/css">
	.st0{fill:#4C34B8;}
</style>
<path class="st0" d="M0,1350l38.8-6.7c38.9-6.6,116.5-20,194-34.1c77.5-14.2,154.9-29.2,232.4-33.9c77.5-4.6,155.1,1,232.8,25
	s155.3,66.4,233,73.5c77.7,7.2,155.3-20.8,232.8-54.6c77.5-33.9,154.9-73.5,232.4-73.4c77.5,0.2,155.1,40.2,232.8,70.5
	c77.7,30.4,155.3,51,233,52.7s155.3-15.7,232.8-21.3c77.5-5.7,154.9,0.3,232.4-11.9c77.5-12.1,155.1-42.5,194-57.6l38.8-15.2v177
	h-38.8c-38.9,0-116.5,0-194,0s-154.9,0-232.4,0s-155.1,0-232.8,0s-155.3,0-233,0s-155.3,0-232.8,0s-154.9,0-232.4,0
	s-155.1,0-232.8,0s-155.3,0-233,0s-155.3,0-232.8,0s-154.9,0-232.4,0s-155.1,0-194,0H0V1350z"/>
</svg>
