<?xml version="1.0" encoding="utf-8"?>
<!-- Generator: Adobe Illustrator 24.1.0, SVG Export Plug-In . SVG Version: 6.00 Build 0)  -->
<svg version="1.1" id="visual" xmlns="http://www.w3.org/2000/svg" xmlns:xlink="http://www.w3.org/1999/xlink" x="0px" y="0px"
	 viewBox="0 0 2560 1440" style="enable-background:new 0 0 2560 1440;" xml:space="preserve">
<style type="text/css">
	.st0{fill:#6B4EF4;}
</style>
<path class="st0" d="M0,1081l38.8-7.2c38.9-7.1,116.5-21.5,194-0.5s154.9,77.4,232.4,101.4s155.1,15.6,232.8-28.2
	s155.3-123.2,233-132.7c77.7-9.5,155.3,50.9,232.8,52.9s154.9-54.4,232.4-88.7s155.1-46.7,232.8-35s155.3,47.3,233,68.7
	c77.7,21.3,155.3,28.3,232.8,39.1c77.5,10.9,154.9,25.5,232.4,3s155.1-82.1,194-112L2560,912v528h-38.8c-38.9,0-116.5,0-194,0
	s-154.9,0-232.4,0s-155.1,0-232.8,0s-155.3,0-233,0s-155.3,0-232.8,0s-154.9,0-232.4,0s-155.1,0-232.8,0s-155.3,0-233,0
	s-155.3,0-232.8,0s-154.9,0-232.4,0s-155.1,0-194,0H0V1081z"/>
</svg>
