<svg id="visual" viewBox="0 0 1280 960" width="1280" height="960" xmlns="http://www.w3.org/2000/svg" xmlns:xlink="http://www.w3.org/1999/xlink" version="1.1"><path d="M0 444L19.3 429.7C38.7 415.3 77.3 386.7 116.2 389C155 391.3 194 424.7 232.8 428.3C271.7 432 310.3 406 349 388C387.7 370 426.3 360 465.2 386.7C504 413.3 543 476.7 581.8 491C620.7 505.3 659.3 470.7 698.2 490.7C737 510.7 776 585.3 814.8 563.5C853.7 541.7 892.3 423.3 931 401.5C969.7 379.7 1008.3 454.3 1047.2 515C1086 575.7 1125 622.3 1163.8 616.2C1202.7 610 1241.3 551 1260.7 521.5L1280 492L1280 961L1260.7 961C1241.3 961 1202.7 961 1163.8 961C1125 961 1086 961 1047.2 961C1008.3 961 969.7 961 931 961C892.3 961 853.7 961 814.8 961C776 961 737 961 698.2 961C659.3 961 620.7 961 581.8 961C543 961 504 961 465.2 961C426.3 961 387.7 961 349 961C310.3 961 271.7 961 232.8 961C194 961 155 961 116.2 961C77.3 961 38.7 961 19.3 961L0 961Z" fill="#9C86FB" stroke-linecap="round" stroke-linejoin="miter"></path></svg>