<svg id="visual" viewBox="0 0 1280 960" width="1280" height="960" xmlns="http://www.w3.org/2000/svg" xmlns:xlink="http://www.w3.org/1999/xlink" version="1.1"><path d="M0 833L11.2 843.8C22.3 854.7 44.7 876.3 67.2 882.8C89.7 889.3 112.3 880.7 134.8 862.7C157.3 844.7 179.7 817.3 202 805.3C224.3 793.3 246.7 796.7 269.2 807.2C291.7 817.7 314.3 835.3 336.8 856.7C359.3 878 381.7 903 404.2 911.7C426.7 920.3 449.3 912.7 471.8 909.3C494.3 906 516.7 907 539 891.2C561.3 875.3 583.7 842.7 606.2 838C628.7 833.3 651.3 856.7 673.8 867C696.3 877.3 718.7 874.7 741 862.7C763.3 850.7 785.7 829.3 808.2 827C830.7 824.7 853.3 841.3 875.8 848C898.3 854.7 920.7 851.3 943.2 839.5C965.7 827.7 988.3 807.3 1010.8 801.7C1033.3 796 1055.7 805 1078 806C1100.3 807 1122.7 800 1145.2 810.2C1167.7 820.3 1190.3 847.7 1212.8 864.3C1235.3 881 1257.7 887 1268.8 890L1280 893L1280 961L1268.8 961C1257.7 961 1235.3 961 1212.8 961C1190.3 961 1167.7 961 1145.2 961C1122.7 961 1100.3 961 1078 961C1055.7 961 1033.3 961 1010.8 961C988.3 961 965.7 961 943.2 961C920.7 961 898.3 961 875.8 961C853.3 961 830.7 961 808.2 961C785.7 961 763.3 961 741 961C718.7 961 696.3 961 673.8 961C651.3 961 628.7 961 606.2 961C583.7 961 561.3 961 539 961C516.7 961 494.3 961 471.8 961C449.3 961 426.7 961 404.2 961C381.7 961 359.3 961 336.8 961C314.3 961 291.7 961 269.2 961C246.7 961 224.3 961 202 961C179.7 961 157.3 961 134.8 961C112.3 961 89.7 961 67.2 961C44.7 961 22.3 961 11.2 961L0 961Z" fill="#4C34B8" stroke-linecap="round" stroke-linejoin="miter"></path></svg>