<svg id="visual" viewBox="0 0 1280 960" width="1280" height="960" xmlns="http://www.w3.org/2000/svg" xmlns:xlink="http://www.w3.org/1999/xlink" version="1.1"><path d="M0 650L13.3 661.2C26.7 672.3 53.3 694.7 80 678.3C106.7 662 133.3 607 160 578C186.7 549 213.3 546 240 567.7C266.7 589.3 293.3 635.7 320 659.8C346.7 684 373.3 686 400 678.3C426.7 670.7 453.3 653.3 480 666.5C506.7 679.7 533.3 723.3 560 712.2C586.7 701 613.3 635 640 616C666.7 597 693.3 625 720 633.8C746.7 642.7 773.3 632.3 800 651C826.7 669.7 853.3 717.3 880 729.3C906.7 741.3 933.3 717.7 960 686.8C986.7 656 1013.3 618 1040 597.2C1066.7 576.3 1093.3 572.7 1120 584.7C1146.7 596.7 1173.3 624.3 1200 626.7C1226.7 629 1253.3 606 1266.7 594.5L1280 583L1280 961L1266.7 961C1253.3 961 1226.7 961 1200 961C1173.3 961 1146.7 961 1120 961C1093.3 961 1066.7 961 1040 961C1013.3 961 986.7 961 960 961C933.3 961 906.7 961 880 961C853.3 961 826.7 961 800 961C773.3 961 746.7 961 720 961C693.3 961 666.7 961 640 961C613.3 961 586.7 961 560 961C533.3 961 506.7 961 480 961C453.3 961 426.7 961 400 961C373.3 961 346.7 961 320 961C293.3 961 266.7 961 240 961C213.3 961 186.7 961 160 961C133.3 961 106.7 961 80 961C53.3 961 26.7 961 13.3 961L0 961Z" fill="#6B4EF4" stroke-linecap="round" stroke-linejoin="miter"></path></svg>