<?xml version="1.0" encoding="utf-8"?>
<!-- Generator: Adobe Illustrator 24.1.0, SVG Export Plug-In . SVG Version: 6.00 Build 0)  -->
<svg version="1.1" id="visual" xmlns="http://www.w3.org/2000/svg" xmlns:xlink="http://www.w3.org/1999/xlink" x="0px" y="0px"
	 viewBox="0 0 2560 1440" style="enable-background:new 0 0 2560 1440;" xml:space="preserve">
<style type="text/css">
	.st0{fill:#856BF8;}
</style>
<path class="st0" d="M0,879l38.8,40.5c38.9,40.5,116.5,121.5,194,135.7c77.5,14.1,154.9-38.5,232.4-87.4
	C542.7,919,620.3,874,698,881.5s155.3,67.5,233,70.2c77.7,2.6,155.3-52,232.8-51.7s154.9,55.7,232.4,81.5s155.1,22.2,232.8,10
	s155.3-32.8,233-57.3s155.3-52.9,232.8-48.4s154.9,41.9,232.4,29.7s155.1-73.8,194-104.7L2560,780v660h-38.8c-38.9,0-116.5,0-194,0
	s-154.9,0-232.4,0s-155.1,0-232.8,0s-155.3,0-233,0s-155.3,0-232.8,0s-154.9,0-232.4,0s-155.1,0-232.8,0s-155.3,0-233,0
	s-155.3,0-232.8,0s-154.9,0-232.4,0s-155.1,0-194,0H0V879z"/>
</svg>
