<svg id="visual" viewBox="0 0 1024 960" width="1024" height="960" xmlns="http://www.w3.org/2000/svg" xmlns:xlink="http://www.w3.org/1999/xlink" version="1.1"><path d="M0 536L21.3 560.3C42.7 584.7 85.3 633.3 128 656.7C170.7 680 213.3 678 256 661.2C298.7 644.3 341.3 612.7 384 600.5C426.7 588.3 469.3 595.7 512 615C554.7 634.3 597.3 665.7 640 667.5C682.7 669.3 725.3 641.7 768 653.5C810.7 665.3 853.3 716.7 896 739.3C938.7 762 981.3 756 1002.7 753L1024 750L1024 961L1002.7 961C981.3 961 938.7 961 896 961C853.3 961 810.7 961 768 961C725.3 961 682.7 961 640 961C597.3 961 554.7 961 512 961C469.3 961 426.7 961 384 961C341.3 961 298.7 961 256 961C213.3 961 170.7 961 128 961C85.3 961 42.7 961 21.3 961L0 961Z" fill="#6B4EF4" stroke-linecap="round" stroke-linejoin="miter"></path></svg>