<svg id="visual" viewBox="0 0 1024 960" width="1024" height="960" xmlns="http://www.w3.org/2000/svg" xmlns:xlink="http://www.w3.org/1999/xlink" version="1.1"><path d="M0 431L21.3 411.2C42.7 391.3 85.3 351.7 128 362.3C170.7 373 213.3 434 256 471.7C298.7 509.3 341.3 523.7 384 562C426.7 600.3 469.3 662.7 512 651.3C554.7 640 597.3 555 640 540.3C682.7 525.7 725.3 581.3 768 622.5C810.7 663.7 853.3 690.3 896 668.2C938.7 646 981.3 575 1002.7 539.5L1024 504L1024 961L1002.7 961C981.3 961 938.7 961 896 961C853.3 961 810.7 961 768 961C725.3 961 682.7 961 640 961C597.3 961 554.7 961 512 961C469.3 961 426.7 961 384 961C341.3 961 298.7 961 256 961C213.3 961 170.7 961 128 961C85.3 961 42.7 961 21.3 961L0 961Z" fill="#856BF8" stroke-linecap="round" stroke-linejoin="miter"></path></svg>