<svg id="visual" viewBox="0 0 1024 960" width="1024" height="960" xmlns="http://www.w3.org/2000/svg" xmlns:xlink="http://www.w3.org/1999/xlink" version="1.1"><path d="M0 857L15.5 852.3C31 847.7 62 838.3 93 829.2C124 820 155 811 186 815.7C217 820.3 248 838.7 279 819.3C310 800 341 743 372 725.5C403 708 434 730 465.2 754C496.3 778 527.7 804 558.8 792.8C590 781.7 621 733.3 652 735.7C683 738 714 791 745 802.7C776 814.3 807 784.7 838 779.8C869 775 900 795 931 805.2C962 815.3 993 815.7 1008.5 815.8L1024 816L1024 961L1008.5 961C993 961 962 961 931 961C900 961 869 961 838 961C807 961 776 961 745 961C714 961 683 961 652 961C621 961 590 961 558.8 961C527.7 961 496.3 961 465.2 961C434 961 403 961 372 961C341 961 310 961 279 961C248 961 217 961 186 961C155 961 124 961 93 961C62 961 31 961 15.5 961L0 961Z" fill="#4C34B8" stroke-linecap="round" stroke-linejoin="miter"></path></svg>