<svg id="visual" viewBox="0 0 1024 960" width="1024" height="960" xmlns="http://www.w3.org/2000/svg" xmlns:xlink="http://www.w3.org/1999/xlink" version="1.1"><path d="M0 701L21.3 682.2C42.7 663.3 85.3 625.7 128 615.5C170.7 605.3 213.3 622.7 256 602.2C298.7 581.7 341.3 523.3 384 508.2C426.7 493 469.3 521 512 496C554.7 471 597.3 393 640 345C682.7 297 725.3 279 768 301.5C810.7 324 853.3 387 896 414.3C938.7 441.7 981.3 433.3 1002.7 429.2L1024 425L1024 961L1002.7 961C981.3 961 938.7 961 896 961C853.3 961 810.7 961 768 961C725.3 961 682.7 961 640 961C597.3 961 554.7 961 512 961C469.3 961 426.7 961 384 961C341.3 961 298.7 961 256 961C213.3 961 170.7 961 128 961C85.3 961 42.7 961 21.3 961L0 961Z" fill="#9C86FB" stroke-linecap="round" stroke-linejoin="miter"></path></svg>