<svg id="visual" viewBox="0 0 1024 960" width="1024" height="960" xmlns="http://www.w3.org/2000/svg" xmlns:xlink="http://www.w3.org/1999/xlink" version="1.1"><path d="M0 729L15.5 732.3C31 735.7 62 742.3 93 722.3C124 702.3 155 655.7 186 647.8C217 640 248 671 279 670C310 669 341 636 372 644.7C403 653.3 434 703.7 465.2 727.7C496.3 751.7 527.7 749.3 558.8 757C590 764.7 621 782.3 652 791C683 799.7 714 799.3 745 768.8C776 738.3 807 677.7 838 662C869 646.3 900 675.7 931 701.8C962 728 993 751 1008.5 762.5L1024 774L1024 961L1008.5 961C993 961 962 961 931 961C900 961 869 961 838 961C807 961 776 961 745 961C714 961 683 961 652 961C621 961 590 961 558.8 961C527.7 961 496.3 961 465.2 961C434 961 403 961 372 961C341 961 310 961 279 961C248 961 217 961 186 961C155 961 124 961 93 961C62 961 31 961 15.5 961L0 961Z" fill="#5B41D6" stroke-linecap="round" stroke-linejoin="miter"></path></svg>