<?xml version="1.0" encoding="utf-8"?>
<!-- Generator: Adobe Illustrator 24.1.0, SVG Export Plug-In . SVG Version: 6.00 Build 0)  -->
<svg version="1.1" id="visual" xmlns="http://www.w3.org/2000/svg" xmlns:xlink="http://www.w3.org/1999/xlink" x="0px" y="0px"
	 viewBox="0 0 1024 1366" style="enable-background:new 0 0 1024 1366;" xml:space="preserve">
<style type="text/css">
	.st0{fill:#5B41D6;}
</style>
<path class="st0" d="M0,1177l17-11.8c17-11.9,51-35.5,85.2-32c34.1,3.5,68.5,34.1,102.6,40.8c34.2,6.7,68.2-10.7,102.4-12.3
	c34.1-1.7,68.5,12.3,102.6,4c34.2-8.4,68.2-39,102.2-58.5s68-27.9,102.2-9.9c34.1,18,68.5,62.4,102.6,73.2
	c34.2,10.8,68.2-11.8,102.4-13.7c34.1-1.8,68.5,17.2,102.6,22.5c34.2,5.4,68.2-3,85.2-7.1l17-4.2v198h-17c-17,0-51,0-85.2,0
	c-34.1,0-68.5,0-102.6,0c-34.2,0-68.2,0-102.4,0c-34.1,0-68.5,0-102.6,0c-34.2,0-68.2,0-102.2,0s-68,0-102.2,0
	c-34.1,0-68.5,0-102.6,0c-34.2,0-68.2,0-102.4,0c-34.1,0-68.5,0-102.6,0c-34.2,0-68.2,0-85.2,0H0V1177z"/>
</svg>
