<?xml version="1.0" encoding="utf-8"?>
<!-- Generator: Adobe Illustrator 24.1.0, SVG Export Plug-In . SVG Version: 6.00 Build 0)  -->
<svg version="1.1" id="visual" xmlns="http://www.w3.org/2000/svg" xmlns:xlink="http://www.w3.org/1999/xlink" x="0px" y="0px"
	 viewBox="0 0 1024 1366" style="enable-background:new 0 0 1024 1366;" xml:space="preserve">
<style type="text/css">
	.st0{fill:#856BF8;}
</style>
<path class="st0" d="M0,807l17,4.5c17,4.5,51,13.5,85.2,26.2c34.1,12.6,68.5,29,102.6,36.3c34.2,7.3,68.2,5.7,102.4,29.8
	c34.1,24.2,68.5,74.2,102.6,77.7C444,985,478,942,512,928.7c34-13.4,68,3,102.2-5.7c34.1-8.7,68.5-42.3,102.6-70
	c34.2-27.7,68.2-49.3,102.4-54.7c34.1-5.3,68.5,5.7,102.6,35.7c34.2,30,68.2,79,85.2,103.5l17,24.5v404h-17c-17,0-51,0-85.2,0
	c-34.1,0-68.5,0-102.6,0c-34.2,0-68.2,0-102.4,0c-34.1,0-68.5,0-102.6,0c-34.2,0-68.2,0-102.2,0s-68,0-102.2,0
	c-34.1,0-68.5,0-102.6,0c-34.2,0-68.2,0-102.4,0c-34.1,0-68.5,0-102.6,0c-34.2,0-68.2,0-85.2,0H0V807z"/>
</svg>
