<?xml version="1.0" encoding="utf-8"?>
<!-- Generator: Adobe Illustrator 24.1.0, SVG Export Plug-In . SVG Version: 6.00 Build 0)  -->
<svg version="1.1" id="visual" xmlns="http://www.w3.org/2000/svg" xmlns:xlink="http://www.w3.org/1999/xlink" x="0px" y="0px"
	 viewBox="0 0 540 960" style="enable-background:new 0 0 540 960;" xml:space="preserve">
<style type="text/css">
	.st0{fill:#9C86FB;}
</style>
<path class="st0" d="M0,568.1l10,0.6c10,0.6,30,1.8,50-13c20-14.9,40-45.7,60-46.2c20-0.4,40,29.7,60,43.2c20,13.3,40,10.2,60,25
	s40,47.7,60,52.5c20,4.8,40-18.5,60-29.3s40-9.1,60-9c20,0.2,40-1,60-19.2c20-18.2,40-53.5,50-71l10-17.7v476h-10c-10,0-30,0-50,0
	s-40,0-60,0s-40,0-60,0s-40,0-60,0s-40,0-60,0s-40,0-60,0s-40,0-60,0s-40,0-60,0s-40,0-50,0H0V568.1z"/>
</svg>
