<?xml version="1.0" encoding="utf-8"?>
<!-- Generator: Adobe Illustrator 24.1.0, SVG Export Plug-In . SVG Version: 6.00 Build 0)  -->
<svg version="1.1" id="visual" xmlns="http://www.w3.org/2000/svg" xmlns:xlink="http://www.w3.org/1999/xlink" x="0px" y="0px"
	 viewBox="0 0 540 960" style="enable-background:new 0 0 540 960;" xml:space="preserve">
<style type="text/css">
	.st0{fill:#6B4EF4;}
</style>
<path class="st0" d="M0,747.1l10-10c10-9.9,30-30,50-41c20-11,40-13,60-5.9s40,23.5,60,40.1c20,16.8,40,33.9,60,33
	c20-0.7,40-19.6,60-19.3s40,19.3,60,13.2s40-37.4,60-37.7s40,30.8,60,38.2c20,7.3,40-9.1,50-17.1l10-8.2V960h-10c-10,0-30,0-50,0
	s-40,0-60,0s-40,0-60,0s-40,0-60,0s-40,0-60,0s-40,0-60,0s-40,0-60,0s-40,0-60,0s-40,0-50,0H0V747.1z"/>
</svg>
