<?xml version="1.0" encoding="utf-8"?>
<!-- Generator: Adobe Illustrator 24.1.0, SVG Export Plug-In . SVG Version: 6.00 Build 0)  -->
<svg version="1.1" id="visual" xmlns="http://www.w3.org/2000/svg" xmlns:xlink="http://www.w3.org/1999/xlink" x="0px" y="0px"
	 viewBox="0 0 540 960" style="enable-background:new 0 0 540 960;" xml:space="preserve">
<style type="text/css">
	.st0{fill:#856BF8;}
</style>
<path class="st0" d="M0,605l10,15.8c10,15.7,30,47.3,50,54.3c20,7.1,40-10.3,60-30.3c20-19.9,40-42.4,60-32.4s40,52.3,60,58.5
	c20,6.2,40-23.7,60-22.2c20,1.4,40,34.3,60,55.8c20,21.5,40,32,60,32.4s40-9.1,60-12.5c20-3.4,40-0.4,50,1l10,1.5V960h-10
	c-10,0-30,0-50,0s-40,0-60,0s-40,0-60,0s-40,0-60,0s-40,0-60,0s-40,0-60,0s-40,0-60,0s-40,0-60,0s-40,0-50,0H0V605z"/>
</svg>
