<svg id="visual" viewBox="0 0 1280 960" width="1280" height="960" xmlns="http://www.w3.org/2000/svg" xmlns:xlink="http://www.w3.org/1999/xlink" version="1.1"><path d="M0 130L53.3 140.3C106.7 150.7 213.3 171.3 320 169.7C426.7 168 533.3 144 640 129.8C746.7 115.7 853.3 111.3 960 118C1066.7 124.7 1173.3 142.3 1226.7 151.2L1280 160L1280 0L1226.7 0C1173.3 0 1066.7 0 960 0C853.3 0 746.7 0 640 0C533.3 0 426.7 0 320 0C213.3 0 106.7 0 53.3 0L0 0Z" fill="#4c34b8" stroke-linecap="round" stroke-linejoin="miter"></path></svg>