<svg id="visual" viewBox="0 0 1280 960" width="1280" height="960" xmlns="http://www.w3.org/2000/svg" xmlns:xlink="http://www.w3.org/1999/xlink" version="1.1"><path d="M0 862L42.7 830.3C85.3 798.7 170.7 735.3 256 729.7C341.3 724 426.7 776 512 755.3C597.3 734.7 682.7 641.3 768 592.7C853.3 544 938.7 540 1024 556.2C1109.3 572.3 1194.7 608.7 1237.3 626.8L1280 645L1280 961L1237.3 961C1194.7 961 1109.3 961 1024 961C938.7 961 853.3 961 768 961C682.7 961 597.3 961 512 961C426.7 961 341.3 961 256 961C170.7 961 85.3 961 42.7 961L0 961Z" fill="#4c34b8" stroke-linecap="round" stroke-linejoin="miter"></path></svg>