<?xml version="1.0" standalone="no"?>
<!DOCTYPE svg PUBLIC "-//W3C//DTD SVG 20010904//EN"
 "http://www.w3.org/TR/2001/REC-SVG-20010904/DTD/svg10.dtd">
<svg version="1.0" xmlns="http://www.w3.org/2000/svg"
 width="1071.000000pt" height="1071.000000pt" viewBox="0 0 1071.000000 1071.000000"
 preserveAspectRatio="xMidYMid meet">
<metadata>
Created by potrace 1.14, written by Peter Selinger 2001-2017
</metadata>
<g transform="translate(0.000000,1071.000000) scale(0.100000,-0.100000)"
fill="#000000" stroke="none">
<path d="M1750 10127 c-25 -13 -85 -41 -134 -63 -56 -25 -91 -46 -96 -59 -6
-18 5 -61 20 -75 3 -3 6 -9 7 -15 1 -10 60 -138 117 -254 14 -30 26 -61 26
-68 0 -7 5 -13 11 -13 5 0 7 -4 4 -10 -3 -5 -1 -10 4 -10 6 0 10 -3 9 -7 -1
-8 20 -59 68 -159 16 -32 27 -62 26 -66 -1 -5 3 -8 9 -8 5 0 7 -4 4 -10 -3 -5
-1 -10 5 -10 6 0 9 -4 5 -9 -3 -5 0 -15 7 -23 7 -7 14 -18 15 -23 1 -6 18 -46
39 -90 21 -44 37 -83 36 -87 -1 -5 3 -8 8 -8 5 0 9 -3 8 -7 -1 -5 8 -28 20
-52 12 -25 22 -51 22 -58 0 -7 5 -13 10 -13 6 0 10 -5 10 -11 0 -6 13 -39 29
-73 61 -128 75 -161 73 -168 -1 -5 3 -8 8 -8 6 0 10 -5 10 -11 0 -6 30 -74 66
-152 36 -78 77 -167 91 -197 61 -132 106 -228 124 -261 10 -20 16 -38 14 -41
-3 -3 1 -11 10 -18 8 -7 15 -19 15 -26 0 -7 9 -29 20 -49 11 -20 20 -42 20
-50 0 -8 5 -15 10 -15 6 0 10 -5 10 -12 0 -6 17 -48 38 -92 21 -45 47 -99 57
-121 10 -22 35 -75 56 -118 21 -43 39 -81 40 -85 3 -9 61 -136 109 -237 35
-74 54 -115 147 -315 19 -41 39 -83 44 -93 6 -11 9 -20 7 -21 -22 -14 -62 -25
-71 -19 -7 4 -46 43 -87 87 -116 123 -356 375 -517 542 -37 39 -124 130 -193
203 -117 124 -177 186 -418 437 -272 283 -350 365 -502 524 -91 95 -201 210
-246 256 -45 46 -79 86 -76 89 3 3 -2 5 -10 5 -9 0 -18 4 -20 10 -3 9 -117
130 -396 418 -56 59 -102 110 -102 115 0 4 -4 5 -10 2 -5 -3 -10 -2 -10 3 0
14 -78 90 -100 97 -15 5 -37 -11 -96 -67 -133 -127 -154 -150 -154 -164 0 -16
32 -53 159 -183 53 -54 161 -167 241 -250 80 -84 188 -196 240 -250 52 -54
178 -185 280 -290 102 -106 232 -241 290 -301 58 -59 189 -195 292 -301 102
-107 233 -242 290 -300 56 -59 202 -209 323 -334 121 -125 279 -287 350 -361
72 -74 128 -135 125 -135 -3 -1 -8 -1 -12 0 -5 0 -8 -4 -8 -9 0 -6 -5 -10 -12
-10 -10 0 -227 -85 -295 -116 -17 -8 -34 -14 -37 -14 -3 0 -31 -11 -62 -25
-56 -25 -57 -26 -39 -45 10 -11 15 -20 11 -20 -4 0 -2 -6 4 -12 6 -7 58 -107
116 -223 58 -115 117 -229 130 -252 25 -43 31 -73 15 -73 -18 0 -193 -167
-242 -230 -13 -17 -34 -43 -45 -57 -49 -59 -145 -239 -158 -298 -2 -5 -8 -28
-14 -50 -36 -130 -32 -313 9 -434 11 -31 21 -63 23 -71 3 -8 9 -27 15 -42 6
-16 8 -28 5 -28 -4 0 -1 -7 6 -15 7 -9 10 -18 7 -21 -3 -3 -1 -18 5 -33 5 -14
12 -37 14 -51 3 -14 9 -38 14 -55 21 -70 44 -151 46 -160 3 -16 64 -198 73
-220 5 -11 19 -47 31 -80 12 -33 34 -89 48 -125 15 -36 27 -67 27 -70 0 -3 5
-12 10 -20 5 -8 10 -21 12 -29 1 -8 11 -33 21 -55 11 -23 28 -59 37 -81 54
-123 212 -432 226 -441 5 -3 7 -10 4 -15 -4 -5 -1 -9 4 -9 6 0 11 -5 11 -10 0
-9 32 -65 78 -136 6 -10 15 -26 19 -34 4 -8 9 -17 12 -20 11 -9 51 -69 51 -75
0 -9 63 -98 75 -107 6 -4 7 -8 3 -8 -5 0 1 -10 11 -22 11 -13 38 -48 60 -78
22 -30 44 -59 48 -65 5 -5 22 -28 38 -50 126 -169 419 -471 599 -617 11 -10
28 -24 36 -31 27 -25 265 -199 280 -205 8 -3 17 -8 20 -11 10 -12 90 -61 99
-61 5 0 11 -4 13 -8 3 -9 119 -77 131 -77 4 0 11 -6 16 -13 5 -8 11 -14 14
-13 4 0 63 -27 132 -60 68 -33 128 -60 132 -61 5 0 24 -8 43 -18 49 -25 297
-116 342 -125 9 -2 25 -8 35 -13 10 -6 20 -10 23 -9 3 1 26 -5 52 -12 39 -11
67 -33 163 -127 64 -63 120 -114 125 -114 9 0 23 -10 64 -45 11 -9 24 -17 79
-48 12 -6 24 -14 27 -17 6 -7 138 -71 200 -98 42 -18 203 -70 239 -77 9 -2 16
-4 16 -5 0 -1 7 -3 15 -5 8 -1 42 -8 75 -15 33 -7 69 -14 80 -15 22 -3 96 -12
190 -25 62 -8 506 -5 585 4 25 3 65 8 90 11 25 4 61 8 80 11 19 2 49 7 65 9
17 3 49 8 73 11 49 7 77 12 77 14 0 1 12 3 28 5 24 3 91 16 152 30 155 34 485
135 513 157 6 6 12 8 12 4 0 -3 17 3 38 13 20 11 66 32 102 47 36 16 67 31 70
34 3 3 26 15 52 27 42 20 265 158 278 173 3 3 30 25 60 50 111 89 315 317 318
354 0 5 4 12 9 15 22 15 105 174 134 254 7 20 16 37 19 37 3 0 17 9 30 19 14
11 62 46 106 79 77 56 93 69 147 115 12 10 44 37 71 60 55 46 261 250 316 312
19 22 58 67 85 100 28 33 56 66 63 73 6 7 12 16 12 20 0 4 14 21 30 39 17 18
30 34 30 37 0 3 25 41 55 83 30 43 60 85 65 93 5 8 20 31 32 50 76 117 259
467 273 523 4 15 12 27 18 27 6 0 7 3 4 6 -4 4 0 19 8 33 7 14 22 49 31 76 10
28 22 56 27 63 5 6 6 12 2 12 -4 0 -2 6 4 13 6 8 12 22 14 33 2 10 8 30 14 44
6 14 25 72 43 130 18 58 35 112 38 120 3 8 6 20 7 25 1 6 3 12 4 15 2 3 4 12
6 20 2 8 15 65 30 125 33 139 55 240 61 285 2 19 6 42 9 50 3 8 7 35 11 60 3
25 8 56 10 70 2 14 7 45 9 69 7 57 13 107 20 156 3 22 8 69 10 105 3 36 8 108
12 160 10 125 10 655 0 795 -5 61 -10 163 -12 227 -1 64 -6 121 -9 126 -3 6
-9 32 -12 59 -3 26 -8 57 -11 68 -4 11 -7 31 -8 45 -6 98 -78 225 -181 318
-76 68 -81 72 -94 72 -5 0 -10 4 -10 9 0 5 -9 13 -20 16 -11 3 -26 12 -33 19
-12 13 -179 96 -192 96 -14 0 -30 26 -32 50 -1 14 -4 66 -8 115 -4 50 -7 116
-8 147 -1 32 -4 58 -7 58 -3 0 -6 24 -6 53 -1 28 -5 88 -9 132 -4 44 -8 107
-10 140 -1 33 -4 60 -5 60 -2 0 -7 96 -9 157 -1 24 -4 26 -38 23 -21 -1 -49
-5 -63 -9 -14 -3 -38 -8 -55 -10 -16 -3 -40 -7 -52 -10 -11 -2 -43 -7 -70 -11
-57 -8 -79 -12 -113 -20 -14 -3 -41 -8 -60 -10 -60 -8 -93 -13 -155 -24 -33
-6 -76 -13 -95 -16 -19 -3 -42 -8 -50 -10 -8 -2 -35 -6 -60 -9 -25 -3 -56 -8
-70 -11 -14 -3 -41 -8 -60 -11 -19 -3 -46 -7 -60 -10 -59 -11 -106 -17 -127
-18 -13 0 -23 -3 -23 -6 0 -3 -10 -7 -22 -7 -13 -1 -36 -4 -53 -7 -16 -3 -46
-7 -65 -10 -19 -2 -48 -7 -65 -10 -16 -3 -52 -9 -80 -12 -27 -4 -53 -8 -56
-10 -4 -2 -24 -6 -45 -9 -22 -4 -79 -13 -129 -22 -49 -8 -103 -17 -120 -19
-66 -10 -80 -12 -80 -14 0 -1 -11 -3 -25 -5 -63 -9 -101 -15 -185 -30 -49 -9
-103 -16 -118 -17 -15 -1 -30 -5 -33 -10 -3 -4 -9 -6 -12 -4 -4 2 -38 -1 -75
-8 l-68 -13 6 101 c3 56 8 129 10 164 4 46 2 62 -7 63 -7 0 -33 2 -58 4 -73 6
-268 21 -390 29 -74 5 -207 15 -295 22 -33 2 -91 7 -130 9 -38 3 -97 7 -130
10 -33 3 -99 7 -148 11 -48 3 -104 7 -125 9 -49 5 -247 19 -407 30 -44 2 -111
7 -150 11 -38 3 -95 7 -125 9 -30 2 -91 6 -135 10 -44 3 -109 8 -145 10 -36 3
-94 7 -130 10 -36 3 -99 7 -140 10 -41 3 -98 7 -125 9 -50 3 -50 3 -51 -28 -1
-17 -4 -67 -8 -111 -5 -73 -12 -161 -22 -305 -11 -167 -14 -201 -19 -265 -3
-38 -8 -101 -10 -140 -3 -38 -7 -92 -9 -120 -2 -27 -4 -59 -5 -71 -1 -19 -8
-21 -98 -23 -54 -1 -122 -3 -152 -4 l-53 -2 -34 110 c-45 142 -46 147 -47 168
-1 9 -5 17 -10 17 -4 0 -6 4 -2 9 3 5 1 12 -5 16 -5 3 -10 15 -10 26 0 25 -8
24 -75 -6 -30 -13 -58 -24 -60 -24 -3 -1 -22 -8 -42 -16 -20 -9 -47 -18 -60
-21 -13 -4 -23 -11 -23 -17 0 -6 -3 -8 -6 -5 -4 5 -113 -37 -274 -105 -14 -6
-27 -11 -30 -11 -6 -1 -66 -25 -105 -42 -16 -7 -59 -25 -95 -40 -36 -14 -76
-31 -90 -37 -14 -5 -31 -11 -38 -13 -8 -1 -28 -9 -45 -17 -34 -16 -185 -77
-191 -77 -5 0 -40 73 -42 90 -2 8 -8 16 -13 18 -6 2 -11 10 -11 18 0 8 -23 62
-52 121 -28 60 -51 114 -51 121 0 6 -4 12 -9 12 -4 0 -8 4 -8 9 0 9 -25 67
-92 211 -32 69 -62 133 -98 215 -12 28 -37 80 -55 117 -18 36 -31 69 -27 72 3
3 0 6 -6 6 -7 0 -11 3 -10 8 2 9 -9 33 -60 142 -98 210 -142 309 -139 314 1 2
-7 13 -17 25 -11 12 -16 21 -13 21 3 0 -7 26 -22 58 -16 31 -43 91 -61 132
-18 41 -35 77 -39 80 -3 3 -7 11 -9 18 -1 8 -18 47 -37 87 -19 40 -35 78 -35
84 0 6 -5 11 -12 11 -6 0 -9 3 -6 6 4 3 -7 32 -23 65 -37 74 -53 112 -51 122
1 4 -3 7 -8 7 -6 0 -10 4 -10 9 0 5 -13 38 -29 73 -16 35 -40 89 -55 120 -24
55 -47 104 -137 296 -22 45 -39 84 -39 86 0 2 -20 47 -45 99 -25 53 -45 101
-45 107 0 5 -4 10 -10 10 -5 0 -10 11 -10 25 0 14 -4 25 -10 25 -5 0 -10 4
-10 10 0 5 -18 46 -40 92 -22 46 -40 89 -40 96 0 7 -4 10 -10 7 -5 -3 -10 -1
-10 4 0 18 -32 13 -80 -12z m733 -4457 c3 -13 -2 -25 -13 -33 -36 -25 -115
-94 -178 -154 -36 -35 -67 -63 -69 -63 -2 0 17 28 43 63 57 74 195 217 205
211 4 -2 9 -13 12 -24z"/>
</g>
</svg>
