<svg id="Layer_1" data-name="Layer 1" xmlns="http://www.w3.org/2000/svg" xmlns:xlink="http://www.w3.org/1999/xlink" viewBox="0 0 442.28 132.17"><defs><style>.cls-1{fill:none;}.cls-2{fill:#363636;}.cls-3{fill:#fff;}.cls-4{fill:#fffeff;}.cls-5{clip-path:url(#clip-path);}.cls-6{fill:#c6c6c6;}.cls-7{clip-path:url(#clip-path-2);}.cls-8{fill-rule:evenodd;}.cls-9{fill:#ed1d69;}.cls-10{fill:#ff6099;}.cls-11{fill:#ebebeb;}.cls-12{fill:#fffefd;}.cls-13{fill:#fbb13c;}.cls-14{fill:#352095;}.cls-15{fill:#6b4ef4;}.cls-16{fill:#060000;}</style><clipPath id="clip-path" transform="translate(-24.75 -14.63)"><ellipse id="SVGID" class="cls-1" cx="111.23" cy="60.88" rx="61.61" ry="25.14" transform="translate(-8.47 19.03) rotate(-9.42)"/></clipPath><clipPath id="clip-path-2" transform="translate(-24.75 -14.63)"><ellipse id="SVGID-2" data-name="SVGID" class="cls-1" cx="109.82" cy="66.31" rx="61.61" ry="21.92" transform="translate(-9.37 18.87) rotate(-9.42)"/></clipPath></defs><g id="Logo"><g id="Name"><path class="cls-2" d="M210.08,55.45a12.42,12.42,0,0,1,6.29-1.58v9.3H214q-4.17,0-6.29,2c-1.41,1.3-2.12,3.58-2.12,6.82V89.4h-8.85v-35h8.85v5.44A12.44,12.44,0,0,1,210.08,55.45Z" transform="translate(-24.75 -14.63)"/><path class="cls-2" d="M219,62.34A15.55,15.55,0,0,1,224.74,56a15.38,15.38,0,0,1,8.13-2.21,14.32,14.32,0,0,1,6.86,1.58,13.89,13.89,0,0,1,4.71,4v-5h8.91v35h-8.91V84.28a13.2,13.2,0,0,1-4.71,4.08A14.5,14.5,0,0,1,232.8,90a15,15,0,0,1-8.06-2.27A16,16,0,0,1,219,81.28a20.63,20.63,0,0,1-2.12-9.52A20.3,20.3,0,0,1,219,62.34Zm24.18,4a8.88,8.88,0,0,0-3.41-3.54,9.16,9.16,0,0,0-4.62-1.23,8.88,8.88,0,0,0-7.93,4.71,10.89,10.89,0,0,0-1.3,5.46,11.31,11.31,0,0,0,1.3,5.54,9.28,9.28,0,0,0,3.41,3.63,8.7,8.7,0,0,0,4.52,1.27A9.17,9.17,0,0,0,239.76,81a8.88,8.88,0,0,0,3.41-3.54,12.67,12.67,0,0,0,0-11.06Z" transform="translate(-24.75 -14.63)"/><path class="cls-2" d="M292.36,54.38,270.67,106h-9.42l7.59-17.45-14-34.14h9.93l9,24.46,9.17-24.46Z" transform="translate(-24.75 -14.63)"/><path class="cls-2" d="M347.83,57.82q4,4,3.95,11V89.4h-8.85V70.06q0-4.11-2.08-6.29a7.48,7.48,0,0,0-5.69-2.18,7.6,7.6,0,0,0-5.73,2.18q-2.12,2.17-2.11,6.29V89.4h-8.85V70.06a8.75,8.75,0,0,0-2.09-6.29,7.48,7.48,0,0,0-5.69-2.18,7.66,7.66,0,0,0-5.78,2.18c-1.42,1.45-2.12,3.55-2.12,6.29V89.4h-8.85v-35h8.85v4.23a11.8,11.8,0,0,1,4.39-3.47,13.6,13.6,0,0,1,5.91-1.27,15.22,15.22,0,0,1,7.34,1.74,12.17,12.17,0,0,1,5,5,12.68,12.68,0,0,1,5-4.86,15.16,15.16,0,0,1,17.45,2.11Z" transform="translate(-24.75 -14.63)"/><path class="cls-2" d="M363.48,87.73a16.21,16.21,0,0,1-6.36-6.36,19.12,19.12,0,0,1-2.3-9.48,18.64,18.64,0,0,1,2.37-9.48,16.51,16.51,0,0,1,6.48-6.36,19.87,19.87,0,0,1,18.33,0,16.51,16.51,0,0,1,6.48,6.36,18.64,18.64,0,0,1,2.37,9.48,18.27,18.27,0,0,1-2.43,9.48,16.89,16.89,0,0,1-6.58,6.36A19.16,19.16,0,0,1,372.58,90,18.48,18.48,0,0,1,363.48,87.73Zm13.62-6.64a8.49,8.49,0,0,0,3.38-3.51,11.73,11.73,0,0,0,1.27-5.69c0-3.33-.88-5.89-2.62-7.68a8.64,8.64,0,0,0-6.42-2.69,8.41,8.41,0,0,0-6.35,2.69q-2.57,2.69-2.57,7.68c0,3.33.84,5.89,2.5,7.68a8.23,8.23,0,0,0,6.29,2.69A9.2,9.2,0,0,0,377.1,81.09Z" transform="translate(-24.75 -14.63)"/><path class="cls-2" d="M423.73,57.82q3.86,4,3.85,11V89.4h-8.85V70.06a9.1,9.1,0,0,0-2.08-6.42A7.39,7.39,0,0,0,411,61.4a7.56,7.56,0,0,0-5.79,2.24,9,9,0,0,0-2.12,6.42V89.4H394.2v-35h8.85v4.36a12.18,12.18,0,0,1,4.52-3.57,14.08,14.08,0,0,1,6-1.3A13.53,13.53,0,0,1,423.73,57.82Z" transform="translate(-24.75 -14.63)"/><path class="cls-2" d="M432.67,62.34a15.28,15.28,0,0,1,13.94-8.53,14.85,14.85,0,0,1,6.51,1.49,12.9,12.9,0,0,1,4.93,4V42.62h9V89.4h-9V84.22a11.89,11.89,0,0,1-4.61,4.17A14.5,14.5,0,0,1,446.55,90a15.08,15.08,0,0,1-8.09-2.27,15.84,15.84,0,0,1-5.79-6.42,20.63,20.63,0,0,1-2.12-9.52A20.3,20.3,0,0,1,432.67,62.34Zm24.18,4a8.88,8.88,0,0,0-3.41-3.54,9.13,9.13,0,0,0-4.62-1.23,8.88,8.88,0,0,0-7.93,4.71,11,11,0,0,0-1.3,5.46,11.42,11.42,0,0,0,1.3,5.54,9.28,9.28,0,0,0,3.41,3.63,8.73,8.73,0,0,0,4.52,1.27A9.14,9.14,0,0,0,453.44,81a8.88,8.88,0,0,0,3.41-3.54,12.67,12.67,0,0,0,0-11.06Z" transform="translate(-24.75 -14.63)"/><path class="cls-2" d="M205.62,99.44v46.78h-8.85V99.44Z" transform="translate(-24.75 -14.63)"/><path class="cls-2" d="M211,119.17a15.6,15.6,0,0,1,5.76-6.33,15.34,15.34,0,0,1,8.12-2.21,14.32,14.32,0,0,1,6.86,1.58,13.91,13.91,0,0,1,4.71,4v-5h8.92v35h-8.92V141.1a13.1,13.1,0,0,1-4.71,4.08,14.34,14.34,0,0,1-6.92,1.61,14.85,14.85,0,0,1-8.06-2.27A16,16,0,0,1,211,138.1a20.62,20.62,0,0,1-2.11-9.51A20.3,20.3,0,0,1,211,119.17Zm24.19,4a9,9,0,0,0-3.42-3.54,9.12,9.12,0,0,0-4.61-1.23,8.91,8.91,0,0,0-7.94,4.71,11,11,0,0,0-1.29,5.47,11.41,11.41,0,0,0,1.29,5.53,9.3,9.3,0,0,0,3.42,3.63,8.61,8.61,0,0,0,4.52,1.27,9,9,0,0,0,8-4.78,12.77,12.77,0,0,0,0-11.06Z" transform="translate(-24.75 -14.63)"/><path class="cls-2" d="M304.78,114.65q3.95,3.94,4,11v20.54h-8.85V126.88a8.75,8.75,0,0,0-2.09-6.29,7.5,7.5,0,0,0-5.69-2.18,7.62,7.62,0,0,0-5.72,2.18q-2.11,2.18-2.11,6.29v19.34h-8.86V126.88q0-4.11-2.08-6.29a7.52,7.52,0,0,0-5.69-2.18,7.72,7.72,0,0,0-5.79,2.18q-2.12,2.18-2.11,6.29v19.34h-8.86v-35h8.86v4.24a11.64,11.64,0,0,1,4.39-3.48A13.74,13.74,0,0,1,270,110.7a15.18,15.18,0,0,1,7.33,1.73,12.21,12.21,0,0,1,5,5,12.63,12.63,0,0,1,5-4.87,15.19,15.19,0,0,1,17.45,2.12Z" transform="translate(-24.75 -14.63)"/><path class="cls-2" d="M314,145.18a5.18,5.18,0,0,1,0-7.39,5.48,5.48,0,0,1,3.95-1.49,5.27,5.27,0,0,1,3.85,1.49,5.25,5.25,0,0,1,0,7.39,5.27,5.27,0,0,1-3.85,1.49A5.48,5.48,0,0,1,314,145.18Z" transform="translate(-24.75 -14.63)"/><path class="cls-2" d="M327.1,119.17A15.24,15.24,0,0,1,341,110.63a14.91,14.91,0,0,1,6.51,1.49,13.07,13.07,0,0,1,4.93,3.95V99.44h9v46.78h-9V141a12,12,0,0,1-4.62,4.17,14.36,14.36,0,0,1-6.89,1.58,15,15,0,0,1-8.09-2.27,15.89,15.89,0,0,1-5.78-6.42,20.49,20.49,0,0,1-2.12-9.51A20.18,20.18,0,0,1,327.1,119.17Zm24.18,4a8.91,8.91,0,0,0-3.42-3.54,9.12,9.12,0,0,0-4.61-1.23,9,9,0,0,0-4.55,1.2,9.1,9.1,0,0,0-3.39,3.51,11,11,0,0,0-1.29,5.47,11.41,11.41,0,0,0,1.29,5.53,9.37,9.37,0,0,0,3.42,3.63,8.61,8.61,0,0,0,4.52,1.27,9.12,9.12,0,0,0,4.61-1.23,9,9,0,0,0,3.42-3.55,12.77,12.77,0,0,0,0-11.06Z" transform="translate(-24.75 -14.63)"/><path class="cls-2" d="M399.26,131.37h-25.6a8.68,8.68,0,0,0,2.65,5.94,8.21,8.21,0,0,0,5.76,2.15,7.22,7.22,0,0,0,7-4.24h9.55a15.91,15.91,0,0,1-5.82,8.32,17,17,0,0,1-10.55,3.25,18.25,18.25,0,0,1-9.08-2.24,15.88,15.88,0,0,1-6.26-6.35,19.54,19.54,0,0,1-2.24-9.49,19.88,19.88,0,0,1,2.21-9.54,15.5,15.5,0,0,1,6.2-6.33,19.9,19.9,0,0,1,18.11-.06,15.13,15.13,0,0,1,6.13,6.1,18.42,18.42,0,0,1,2.18,9.07A20.77,20.77,0,0,1,399.26,131.37Zm-8.91-5.94a7.05,7.05,0,0,0-2.47-5.47A8.73,8.73,0,0,0,382,117.9a8.07,8.07,0,0,0-5.53,2,8.78,8.78,0,0,0-2.75,5.54Z" transform="translate(-24.75 -14.63)"/><path class="cls-2" d="M417.4,138.07l8.86-26.87h9.42l-13,35H412l-12.9-35h9.48Z" transform="translate(-24.75 -14.63)"/></g><g id="Noodle_Code" data-name="Noodle &amp; Code"><g id="Noodle_Bowl" data-name="Noodle Bowl"><ellipse id="Bowl_inner_color" data-name="Bowl inner color" class="cls-3" cx="111.11" cy="77.27" rx="60.26" ry="19.24" transform="translate(-37.07 7.13) rotate(-10.6)"/><path id="Bowl_bottom_color" data-name="Bowl bottom color" class="cls-4" d="M140.58,138.23c0-.49,6.35-5.07,5.42-5.4s-5.29-3.53-5.15-1.54c.11,1.62-33.84,11.83-39,6.45-.57-.6-1.43.35-1.77.5-1.84.83-2.9,1.79-2.88,2.8.07,2.71,8,4.71,17.75,4.46,7.43-.18,13.75-1.63,16.3-3.5C132,141.41,140.6,138.87,140.58,138.23Z" transform="translate(-24.75 -14.63)"/><g id="Bowl_top_ring" data-name="Bowl top ring"><path d="M114.68,97c-29.93,5-56,2.76-62-5.39a10.29,10.29,0,0,1-1.2-7.77c.94-4.21,4.22-8.07,9.73-11.47l4.3-2.13,5.92-2.57,10.77-4.28.53,1.71c-2.93,1.8-14.37,4.69-21.67,9.25a17.72,17.72,0,0,0-7.67,9.81,8.6,8.6,0,0,0,.91,6.4c2.61,3.53,10,6,20.84,6.89,11.15,1,25.1.15,39.29-2.23S142,89,152.25,84.49c9.94-4.4,16.14-9.13,17.45-13.32a4.94,4.94,0,0,0,.19-2.33l-.52-3.12A5.26,5.26,0,0,0,167.92,63c-2.63-2.82-8.62-4.93-17.17-6-11.65-1.41-26.73-.73-42.46,1.91A183.49,183.49,0,0,0,82.67,65l-.59-1.71A187.32,187.32,0,0,1,108,57.14c15.93-2.67,31.22-3.35,43.07-1.92,12.2,1.48,19.39,5.09,20.24,10.18l.53,3.11a6.83,6.83,0,0,1-.25,3.12C168.54,81.3,144.61,92,114.68,97Z" transform="translate(-24.75 -14.63)"/></g><g id="Noodles_R_Back" data-name="Noodles R Back"><g class="cls-5"><ellipse class="cls-3" cx="155.38" cy="73.02" rx="14.9" ry="17.09" transform="translate(-34.61 11.79) rotate(-9.42)"/><path class="cls-6" d="M158.28,90.5c-8.4,1.39-16.54-5.31-18.14-15s3.94-18.61,12.34-20S169,60.85,170.62,70.49,166.69,89.11,158.28,90.5Zm-5.59-33.72c-7.82,1.29-13,9.63-11.47,18.59s9.05,15.19,16.86,13.9,12.95-9.64,11.47-18.6S160.5,55.48,152.69,56.78Z" transform="translate(-24.75 -14.63)"/><ellipse class="cls-3" cx="155.38" cy="73.02" rx="11.86" ry="13.6" transform="translate(-34.61 11.79) rotate(-9.42)"/><path class="cls-6" d="M157.71,87.05c-6.75,1.12-13.28-4.26-14.56-12s3.16-14.94,9.9-16.06,13.28,4.26,14.56,12S164.46,85.93,157.71,87.05Zm-4.45-26.83c-6.15,1-10.21,7.6-9,14.65s7.13,12,13.28,10.95,10.21-7.59,9-14.65S159.41,59.2,153.26,60.22Z" transform="translate(-24.75 -14.63)"/><ellipse class="cls-3" cx="155.38" cy="73.02" rx="8.81" ry="10.1" transform="translate(-34.61 11.79) rotate(-9.42)"/><path class="cls-6" d="M157.14,83.6c-5.09.85-10-3.21-11-9s2.39-11.27,7.48-12.11,10,3.22,11,9S162.22,82.76,157.14,83.6Zm-3.31-19.93c-4.49.75-7.46,5.55-6.6,10.7s5.21,8.75,9.7,8,7.46-5.55,6.6-10.7S158.32,62.93,153.83,63.67Z" transform="translate(-24.75 -14.63)"/><path class="cls-3" d="M156.46,79.54c-3.13.52-6.16-2-6.76-5.58s1.47-6.94,4.6-7.46,6.17,2,6.76,5.58S159.6,79,156.46,79.54Z" transform="translate(-24.75 -14.63)"/><path class="cls-6" d="M156.56,80.15c-3.42.57-6.75-2.16-7.4-6.1s1.61-7.59,5-8.16,6.75,2.17,7.4,6.1S160,79.59,156.56,80.15Zm-2.16-13c-2.83.47-4.7,3.5-4.16,6.75s3.28,5.52,6.12,5,4.71-3.5,4.17-6.75S157.24,66.65,154.4,67.12Z" transform="translate(-24.75 -14.63)"/><path class="cls-3" d="M155.89,76.09a3.14,3.14,0,1,1,2.17-3.51A2.93,2.93,0,0,1,155.89,76.09Z" transform="translate(-24.75 -14.63)"/><path class="cls-6" d="M156,76.71a3.77,3.77,0,1,1,2.6-4.22A3.53,3.53,0,0,1,156,76.71Zm-1-6.14a2.51,2.51,0,1,0,2.55,2.1A2.36,2.36,0,0,0,155,70.57Z" transform="translate(-24.75 -14.63)"/></g></g><g id="Noodle_Left" data-name="Noodle Left"><circle class="cls-3" cx="90.92" cy="77.62" r="18.67" transform="translate(-36.23 1.3) rotate(-9.42)"/><path class="cls-6" d="M94.08,96.71A19.35,19.35,0,1,1,110,74.45,19.37,19.37,0,0,1,94.08,96.71ZM88,59.88a18,18,0,1,0,20.69,14.79A18,18,0,0,0,88,59.88Z" transform="translate(-24.75 -14.63)"/><circle class="cls-3" cx="90.92" cy="77.62" r="14.85" transform="translate(-38.71 5.61) rotate(-11.8)"/><path class="cls-6" d="M93.46,92.94a15.53,15.53,0,1,1,12.78-17.87A15.56,15.56,0,0,1,93.46,92.94ZM88.6,63.64A14.17,14.17,0,1,0,104.89,75.3,14.19,14.19,0,0,0,88.6,63.64Z" transform="translate(-24.75 -14.63)"/><circle class="cls-3" cx="90.92" cy="77.62" r="11.03" transform="translate(-36.23 1.3) rotate(-9.42)"/><path class="cls-6" d="M92.83,89.17a11.71,11.71,0,1,1,9.64-13.47A11.72,11.72,0,0,1,92.83,89.17ZM89.22,67.41a10.35,10.35,0,1,0,11.91,8.51A10.35,10.35,0,0,0,89.22,67.41Z" transform="translate(-24.75 -14.63)"/><path class="cls-3" d="M92.1,84.73A7.21,7.21,0,1,1,98,76.44,7.21,7.21,0,0,1,92.1,84.73Z" transform="translate(-24.75 -14.63)"/><path class="cls-6" d="M92.21,85.41a7.9,7.9,0,1,1,6.5-9.09A7.9,7.9,0,0,1,92.21,85.41ZM89.85,71.17a6.53,6.53,0,1,0,7.51,5.38A6.54,6.54,0,0,0,89.85,71.17Z" transform="translate(-24.75 -14.63)"/><path class="cls-3" d="M91.47,81a3.4,3.4,0,1,1,2.8-3.91A3.4,3.4,0,0,1,91.47,81Z" transform="translate(-24.75 -14.63)"/><path class="cls-6" d="M91.58,81.64A4.08,4.08,0,1,1,94.94,77,4.09,4.09,0,0,1,91.58,81.64Zm-1.11-6.7a2.71,2.71,0,1,0,3.12,2.23A2.72,2.72,0,0,0,90.47,74.94Z" transform="translate(-24.75 -14.63)"/></g><g id="Noodles_Left_Back" data-name="Noodles Left Back"><g class="cls-7"><circle class="cls-3" cx="75.31" cy="87.96" r="21.25" transform="translate(-25.07 -14.36) rotate(-0.2)"/><path class="cls-6" d="M78.91,109.7A22,22,0,1,1,97,84.36,22.06,22.06,0,0,1,78.91,109.7ZM72,67.76A20.48,20.48,0,1,0,95.51,84.61,20.51,20.51,0,0,0,72,67.76Z" transform="translate(-24.75 -14.63)"/><circle class="cls-3" cx="75.31" cy="87.96" r="16.91" transform="translate(-34.97 -4.74) rotate(-7.04)"/><path class="cls-6" d="M78.2,105.41A17.68,17.68,0,1,1,92.75,85.07,17.7,17.7,0,0,1,78.2,105.41ZM72.66,72.05A16.13,16.13,0,1,0,91.22,85.32,16.16,16.16,0,0,0,72.66,72.05Z" transform="translate(-24.75 -14.63)"/><circle class="cls-3" cx="75.31" cy="87.96" r="12.56" transform="translate(-34.97 -4.74) rotate(-7.04)"/><path class="cls-6" d="M77.49,101.12a13.34,13.34,0,1,1,11-15.34A13.34,13.34,0,0,1,77.49,101.12ZM73.38,76.34A11.78,11.78,0,1,0,86.93,86,11.8,11.8,0,0,0,73.38,76.34Z" transform="translate(-24.75 -14.63)"/><path class="cls-3" d="M76.65,96.07a8.22,8.22,0,1,1,6.76-9.45A8.22,8.22,0,0,1,76.65,96.07Z" transform="translate(-24.75 -14.63)"/><path class="cls-6" d="M76.78,96.83a9,9,0,1,1,7.4-10.34A9,9,0,0,1,76.78,96.83Zm-2.69-16.2a7.43,7.43,0,1,0,8.55,6.12A7.44,7.44,0,0,0,74.09,80.63Z" transform="translate(-24.75 -14.63)"/><path class="cls-3" d="M75.94,91.78a3.87,3.87,0,1,1,3.18-4.45A3.88,3.88,0,0,1,75.94,91.78Z" transform="translate(-24.75 -14.63)"/><path class="cls-6" d="M76.07,92.55a4.65,4.65,0,1,1,3.82-5.35A4.67,4.67,0,0,1,76.07,92.55ZM74.8,84.92a3.09,3.09,0,1,0,3.55,2.54A3.08,3.08,0,0,0,74.8,84.92Z" transform="translate(-24.75 -14.63)"/></g></g><path id="Chopstick_right" data-name="Chopstick right" class="cls-8" d="M45.68,17.05C64.4,57.66,83.06,97.74,102.79,137.88a.57.57,0,0,0,.74.26l1.2-.56a.55.55,0,0,0,.28-.73C87.31,95.79,68.94,55.57,50.22,15a.56.56,0,0,0-.74-.27L46,16.3a.57.57,0,0,0-.27.75Z" transform="translate(-24.75 -14.63)"/><g id="Noodle_Middle" data-name="Noodle Middle"><circle class="cls-3" cx="113.92" cy="73.36" r="20.74" transform="translate(-35.23 5.01) rotate(-9.42)"/><path class="cls-6" d="M117.44,94.58a21.51,21.51,0,1,1,17.69-24.74A21.53,21.53,0,0,1,117.44,94.58Zm-6.79-40.93a20,20,0,1,0,23,16.44A20,20,0,0,0,110.65,53.65Z" transform="translate(-24.75 -14.63)"/><circle class="cls-3" cx="113.92" cy="73.36" r="16.5" transform="translate(-38.01 11.97) rotate(-12.59)"/><path class="cls-6" d="M116.74,90.39A17.26,17.26,0,1,1,131,70.54,17.28,17.28,0,0,1,116.74,90.39Zm-5.4-32.56a15.75,15.75,0,1,0,18.11,13A15.77,15.77,0,0,0,111.34,57.83Z" transform="translate(-24.75 -14.63)"/><circle class="cls-3" cx="113.92" cy="73.36" r="12.26" transform="translate(-37.2 9.82) rotate(-11.62)"/><path class="cls-6" d="M116.05,86.21a13,13,0,1,1,10.71-15A13,13,0,0,1,116.05,86.21ZM112,62a11.5,11.5,0,1,0,13.22,9.46A11.51,11.51,0,0,0,112,62Z" transform="translate(-24.75 -14.63)"/><path class="cls-3" d="M115.23,81.27a8,8,0,1,1,6.6-9.22A8,8,0,0,1,115.23,81.27Z" transform="translate(-24.75 -14.63)"/><path class="cls-6" d="M115.36,82a8.77,8.77,0,1,1,7.22-10.09A8.79,8.79,0,0,1,115.36,82ZM112.73,66.2a7.26,7.26,0,1,0,8.35,6A7.26,7.26,0,0,0,112.73,66.2Z" transform="translate(-24.75 -14.63)"/><path class="cls-3" d="M114.54,77.09a3.78,3.78,0,1,1,3.1-4.34A3.77,3.77,0,0,1,114.54,77.09Z" transform="translate(-24.75 -14.63)"/><path class="cls-6" d="M114.66,77.84a4.54,4.54,0,1,1,3.73-5.22A4.54,4.54,0,0,1,114.66,77.84Zm-1.23-7.45a3,3,0,1,0,3.46,2.48A3,3,0,0,0,113.43,70.39Z" transform="translate(-24.75 -14.63)"/></g><g id="HTML"><g id="Guides_to_delete" data-name="Guides to delete"><polygon class="cls-9" points="45.45 83.68 29.12 51.76 61.55 38.66 71.97 72.97 60.19 82 45.45 83.68"/><polygon class="cls-10" points="46.43 47.91 59.06 79.19 68.59 71.88 59.68 42.56 46.43 47.91"/><polygon class="cls-3" points="37.9 56.08 43.95 67.92 58.03 62.24 59.69 67.7 55.65 70.75 50.63 71.36 48.96 68.1 44.89 69.74 48.1 76.03 57.35 74.98 64.75 69.3 60.83 56.38 46.03 62.36 43.98 58.35 59.51 52.08 59.52 52.07 58.24 47.87 37.9 56.08"/><polygon class="cls-11" points="48.07 51.98 37.9 56.08 43.95 67.92 53.03 64.26 51.39 60.2 46.03 62.36 43.98 58.35 49.71 56.04 48.07 51.98"/><polygon class="cls-11" points="55.65 70.75 55.65 70.75 50.63 71.36 48.96 68.1 44.89 69.74 48.1 76.03 57.35 74.98 57.36 74.97 55.65 70.75"/></g></g><g id="Noodle_Low_Left" data-name="Noodle Low Left"><circle class="cls-12" cx="88.35" cy="97.72" r="18.53" transform="translate(-25.1 -14.31) rotate(-0.2)"/><path class="cls-6" d="M91.5,116.67a19.21,19.21,0,1,1,15.8-22.1A19.23,19.23,0,0,1,91.5,116.67ZM85.43,80.1A17.86,17.86,0,1,0,106,94.8,17.88,17.88,0,0,0,85.43,80.1Z" transform="translate(-24.75 -14.63)"/><circle class="cls-3" cx="88.35" cy="97.72" r="14.74" transform="translate(-35.74 -3.44) rotate(-6.82)"/><path class="cls-6" d="M90.88,112.93a15.42,15.42,0,1,1,12.68-17.74A15.44,15.44,0,0,1,90.88,112.93ZM86.05,83.84a14.07,14.07,0,1,0,16.18,11.58A14.08,14.08,0,0,0,86.05,83.84Z" transform="translate(-24.75 -14.63)"/><circle class="cls-3" cx="88.35" cy="97.72" r="10.95" transform="translate(-36.78 -2.23) rotate(-7.51)"/><path class="cls-6" d="M90.26,109.19a11.63,11.63,0,1,1,9.57-13.37A11.64,11.64,0,0,1,90.26,109.19ZM86.67,87.58A10.28,10.28,0,1,0,98.49,96,10.3,10.3,0,0,0,86.67,87.58Z" transform="translate(-24.75 -14.63)"/><path class="cls-3" d="M89.52,104.79a7.17,7.17,0,1,1,5.9-8.24A7.17,7.17,0,0,1,89.52,104.79Z" transform="translate(-24.75 -14.63)"/><path class="cls-6" d="M89.63,105.45a7.84,7.84,0,1,1,6.46-9A7.83,7.83,0,0,1,89.63,105.45ZM87.29,91.32a6.49,6.49,0,1,0,7.46,5.34A6.5,6.5,0,0,0,87.29,91.32Z" transform="translate(-24.75 -14.63)"/><path class="cls-3" d="M88.9,101.05a3.38,3.38,0,1,1,2.78-3.88A3.39,3.39,0,0,1,88.9,101.05Z" transform="translate(-24.75 -14.63)"/><path class="cls-6" d="M89,101.71a4,4,0,1,1,3.34-4.65A4,4,0,0,1,89,101.71Zm-1.1-6.65A2.7,2.7,0,1,0,91,97.28,2.7,2.7,0,0,0,87.91,95.06Z" transform="translate(-24.75 -14.63)"/></g><path id="Chopstick_left" data-name="Chopstick left" class="cls-8" d="M24.91,26.84c31,32.23,61.78,64,93.57,95.43a.56.56,0,0,0,.78,0l1-.92a.55.55,0,0,0,0-.78c-30.19-33-60.72-65-91.73-97.2a.56.56,0,0,0-.79,0l-2.79,2.69a.56.56,0,0,0,0,.79Z" transform="translate(-24.75 -14.63)"/><g id="Noodle_Right" data-name="Noodle Right"><circle class="cls-3" cx="116.67" cy="54.62" r="17.52"/><path class="cls-6" d="M144.4,87.16a18.16,18.16,0,1,1,14.94-20.89A18.18,18.18,0,0,1,144.4,87.16ZM138.66,52.6a16.87,16.87,0,1,0,19.41,13.88A16.88,16.88,0,0,0,138.66,52.6Z" transform="translate(-24.75 -14.63)"/><circle class="cls-3" cx="141.43" cy="69.25" r="13.93" transform="translate(-35.93 15.77) rotate(-11.8)"/><path class="cls-6" d="M143.81,83.62a14.57,14.57,0,1,1,12-16.76A14.58,14.58,0,0,1,143.81,83.62Zm-4.56-27.49a13.29,13.29,0,1,0,15.29,10.94A13.31,13.31,0,0,0,139.25,56.13Z" transform="translate(-24.75 -14.63)"/><circle class="cls-3" cx="141.43" cy="69.25" r="10.35" transform="translate(-35.93 15.77) rotate(-11.8)"/><path class="cls-6" d="M143.22,80.09a11,11,0,1,1,9.05-12.64A11,11,0,0,1,143.22,80.09Zm-3.38-20.42a9.71,9.71,0,1,0,11.17,8A9.71,9.71,0,0,0,139.84,59.67Z" transform="translate(-24.75 -14.63)"/><path class="cls-3" d="M142.53,75.92a6.77,6.77,0,1,1,5.57-7.78A6.76,6.76,0,0,1,142.53,75.92Z" transform="translate(-24.75 -14.63)"/><path class="cls-6" d="M142.64,76.56a7.41,7.41,0,1,1,6.1-8.53A7.41,7.41,0,0,1,142.64,76.56ZM140.42,63.2a6.13,6.13,0,1,0,7.05,5A6.14,6.14,0,0,0,140.42,63.2Z" transform="translate(-24.75 -14.63)"/><path class="cls-3" d="M142,72.39a3.19,3.19,0,1,1,2.62-3.66A3.19,3.19,0,0,1,142,72.39Z" transform="translate(-24.75 -14.63)"/><path class="cls-6" d="M142.05,73a3.83,3.83,0,1,1,3.15-4.4A3.82,3.82,0,0,1,142.05,73Zm-1-6.29a2.55,2.55,0,1,0,2.93,2.1A2.55,2.55,0,0,0,141,66.73Z" transform="translate(-24.75 -14.63)"/></g><g id="Noodle_Low_Right" data-name="Noodle Low Right"><circle class="cls-12" cx="130.94" cy="94.66" r="23.61" transform="translate(-25.09 -14.16) rotate(-0.2)"/><path class="cls-6" d="M135,118.8a24.47,24.47,0,1,1,20.14-28.15A24.49,24.49,0,0,1,135,118.8Zm-7.73-46.58a22.75,22.75,0,1,0,26.16,18.71A22.77,22.77,0,0,0,127.22,72.22Z" transform="translate(-24.75 -14.63)"/><circle class="cls-3" cx="130.94" cy="94.66" r="18.78" transform="translate(-35.07 1.6) rotate(-6.82)"/><path class="cls-6" d="M134.16,114a19.64,19.64,0,1,1,16.16-22.6A19.67,19.67,0,0,1,134.16,114ZM128,77a17.92,17.92,0,1,0,20.61,14.74A17.95,17.95,0,0,0,128,77Z" transform="translate(-24.75 -14.63)"/><circle class="cls-3" cx="130.94" cy="94.66" r="13.95" transform="matrix(0.99, -0.13, 0.13, 0.99, -36.01, 3.31)"/><path class="cls-6" d="M133.37,109.27a14.81,14.81,0,1,1,12.19-17A14.84,14.84,0,0,1,133.37,109.27ZM128.8,81.74a13.09,13.09,0,1,0,15,10.77A13.11,13.11,0,0,0,128.8,81.74Z" transform="translate(-24.75 -14.63)"/><path class="cls-3" d="M132.43,103.66a9.13,9.13,0,1,1,7.51-10.5A9.14,9.14,0,0,1,132.43,103.66Z" transform="translate(-24.75 -14.63)"/><path class="cls-6" d="M132.58,104.51A10,10,0,1,1,140.79,93,10,10,0,0,1,132.58,104.51Zm-3-18a8.26,8.26,0,1,0,9.5,6.79A8.27,8.27,0,0,0,129.59,86.51Z" transform="translate(-24.75 -14.63)"/><path class="cls-3" d="M131.64,98.89A4.29,4.29,0,1,1,135.18,94,4.3,4.3,0,0,1,131.64,98.89Z" transform="translate(-24.75 -14.63)"/><path class="cls-6" d="M131.79,99.75A5.16,5.16,0,1,1,136,93.81,5.18,5.18,0,0,1,131.79,99.75Zm-1.41-8.48a3.43,3.43,0,1,0,4,2.82A3.43,3.43,0,0,0,130.38,91.27Z" transform="translate(-24.75 -14.63)"/></g><g id="JS"><path class="cls-13" d="M93.08,43.61l37.12,2.71-2.72,37.12L90.36,80.72Z" transform="translate(-24.75 -14.63)"/><path d="M100.57,75.34l3-1.51c.48,1,.92,1.87,2.12,2s1.9-.32,2-2.06l.87-11.86,3.49.26L111.16,74c-.27,3.61-2.5,5.1-5.59,4.87a5.42,5.42,0,0,1-5-3.57" transform="translate(-24.75 -14.63)"/><path d="M112.93,75.87l3-1.44a3.79,3.79,0,0,0,3.28,2.37c1.45.11,2.42-.55,2.5-1.54.08-1.2-.83-1.69-2.38-2.51l-.84-.44c-2.44-1.25-4-2.72-3.8-5.56.19-2.61,2.33-4.46,5.44-4.23a5.17,5.17,0,0,1,4.76,3.15L122,67.21a2.36,2.36,0,0,0-2.13-1.65,1.52,1.52,0,0,0-1.78,1.37c-.07,1,.54,1.52,2,2.27l.85.44c2.87,1.49,4.44,2.91,4.23,5.82-.23,3.14-2.82,4.68-6.14,4.44a6.72,6.72,0,0,1-6.09-4" transform="translate(-24.75 -14.63)"/></g><g id="CSS"><path class="cls-14" d="M151.75,88l-15-1.59-9.14-35.24,35-5.83,2.76,36.29L151.75,88Z" transform="translate(-24.75 -14.63)"/><path class="cls-15" d="M162.33,79.82l-2.36-31-14.32,2.38L151.27,85l11.06-5.14Z" transform="translate(-24.75 -14.63)"/><path class="cls-11" d="M137.64,66.16l1.13,4.32,9.81-1.64-.73-4.38Zm-2.26-8.75,1.13,4.32L147.11,60l-.73-4.38-11,1.83Zm14.37,18.44h0l-5.1-.51-.9-3.45-4.4.74,1.76,6.78,9.4,1h0Z" transform="translate(-24.75 -14.63)"/><path class="cls-3" d="M158,62.76l-.69-9-11,1.83.73,4.39,6.18-1,.35,4.56-5.78,1,.73,4.39L154,68l.44,5.77-4.67,2.13.76,4.57,8.57-4,0-.75L158.12,64l-.08-1.2Z" transform="translate(-24.75 -14.63)"/></g><g id="Noodle_Low_Right-2" data-name="Noodle Low Right"><circle class="cls-12" cx="146.18" cy="91.94" r="18.42" transform="translate(-25.08 -14.11) rotate(-0.2)"/><path class="cls-6" d="M149.31,110.78a19.1,19.1,0,1,1,15.71-22A19.13,19.13,0,0,1,149.31,110.78Zm-6-36.36A17.75,17.75,0,1,0,163.69,89,17.78,17.78,0,0,0,143.28,74.42Z" transform="translate(-24.75 -14.63)"/><circle class="cls-3" cx="146.18" cy="91.94" r="14.66" transform="translate(-34.64 3.39) rotate(-6.82)"/><path class="cls-6" d="M148.69,107.06a15.33,15.33,0,1,1,12.62-17.63A15.35,15.35,0,0,1,148.69,107.06Zm-4.8-28.92A14,14,0,1,0,160,89.65,14,14,0,0,0,143.89,78.14Z" transform="translate(-24.75 -14.63)"/><circle class="cls-3" cx="146.18" cy="91.94" r="10.89" transform="translate(-35.52 5.28) rotate(-7.51)"/><path class="cls-6" d="M148.08,103.34A11.56,11.56,0,1,1,157.59,90,11.57,11.57,0,0,1,148.08,103.34Zm-3.57-21.48a10.21,10.21,0,1,0,11.75,8.4A10.23,10.23,0,0,0,144.51,81.86Z" transform="translate(-24.75 -14.63)"/><path class="cls-3" d="M147.35,99a7.12,7.12,0,1,1,5.86-8.19A7.13,7.13,0,0,1,147.35,99Z" transform="translate(-24.75 -14.63)"/><path class="cls-6" d="M147.46,99.62a7.79,7.79,0,1,1,6.41-9A7.8,7.8,0,0,1,147.46,99.62Zm-2.33-14a6.45,6.45,0,1,0,7.41,5.3A6.45,6.45,0,0,0,145.13,85.58Z" transform="translate(-24.75 -14.63)"/><path class="cls-3" d="M146.73,95.24a3.35,3.35,0,1,1,2.76-3.85A3.34,3.34,0,0,1,146.73,95.24Z" transform="translate(-24.75 -14.63)"/><path class="cls-6" d="M146.84,95.91a4,4,0,1,1,3.32-4.63A4,4,0,0,1,146.84,95.91Zm-1.09-6.62a2.68,2.68,0,1,0,3.08,2.21A2.69,2.69,0,0,0,145.75,89.29Z" transform="translate(-24.75 -14.63)"/></g><g id="Noodle_Mid_Low" data-name="Noodle Mid Low"><circle class="cls-12" cx="114.44" cy="95.34" r="17.88" transform="translate(-25.09 -14.22) rotate(-0.2)"/><path class="cls-6" d="M117.48,113.63A18.54,18.54,0,1,1,132.73,92.3,18.55,18.55,0,0,1,117.48,113.63Zm-5.86-35.29a17.23,17.23,0,1,0,19.82,14.18A17.25,17.25,0,0,0,111.62,78.34Z" transform="translate(-24.75 -14.63)"/><circle class="cls-3" cx="114.44" cy="95.34" r="14.23" transform="translate(-35.27 -0.35) rotate(-6.82)"/><path class="cls-6" d="M116.88,110A14.88,14.88,0,1,1,129.12,92.9,14.91,14.91,0,0,1,116.88,110ZM112.22,82a13.57,13.57,0,1,0,15.61,11.17A13.6,13.6,0,0,0,112.22,82Z" transform="translate(-24.75 -14.63)"/><circle class="cls-3" cx="114.44" cy="95.34" r="10.57" transform="translate(-36.24 1.16) rotate(-7.51)"/><path class="cls-6" d="M116.28,106.41a11.22,11.22,0,1,1,9.23-12.91A11.25,11.25,0,0,1,116.28,106.41Zm-3.46-20.85a9.91,9.91,0,1,0,11.4,8.16A9.93,9.93,0,0,0,112.82,85.56Z" transform="translate(-24.75 -14.63)"/><path class="cls-3" d="M115.57,102.16a6.91,6.91,0,1,1,5.69-8A6.92,6.92,0,0,1,115.57,102.16Z" transform="translate(-24.75 -14.63)"/><path class="cls-6" d="M115.68,102.8a7.56,7.56,0,1,1,6.23-8.7A7.57,7.57,0,0,1,115.68,102.8Zm-2.26-13.63a6.25,6.25,0,1,0,7.2,5.14A6.26,6.26,0,0,0,113.42,89.17Z" transform="translate(-24.75 -14.63)"/><path class="cls-3" d="M115,98.55a3.25,3.25,0,1,1,2.67-3.74A3.27,3.27,0,0,1,115,98.55Z" transform="translate(-24.75 -14.63)"/><path class="cls-6" d="M115.08,99.19a3.91,3.91,0,1,1,3.22-4.49A3.9,3.9,0,0,1,115.08,99.19ZM114,92.77a2.6,2.6,0,1,0,3,2.14A2.6,2.6,0,0,0,114,92.77Z" transform="translate(-24.75 -14.63)"/></g><g id="Bowl_bottom" data-name="Bowl bottom"><path d="M123.05,146c-17.66,3-26.1-2.86-30.07-8.26l-2.43-3.32,3.27,1.14c1.27.45,2.6.84,4,1.18a57.78,57.78,0,0,0,23.84.63c10-1.68,18.53-5.24,25.42-10.59l.25-.2,2.95-2.3-1.46,4.13a20.88,20.88,0,0,1-7,10.08C137.31,142.13,131,144.66,123.05,146Zm-25.28-5.81c4.44,3.22,12,5.52,24.87,3.36,7.7-1.29,13.78-3.6,18.08-6.87a19.9,19.9,0,0,0,4.33-4.43,63.7,63.7,0,0,1-22.92,8.23A63.6,63.6,0,0,1,97.77,140.18Z" transform="translate(-24.75 -14.63)"/></g><path id="Bowl_color" data-name="Bowl color" class="cls-3" d="M164.21,102.22c-1.67,1.38-.28,5-1,7.4-4.63,15.73-25,27.94-49.69,28.56-25.2.64-46.48-11-51.38-26.93-.32-1-12.64-20.71-8.14-26.8.48-.65,4.15.78,6.64,3C62.36,89,68.11,90.07,71.37,90c10.49-.29,26.46,2.36,31.5,2.23,4.3-.1,26-4,31.94-7.37,9.46-5.28,20-10.58,26.62-15.52,3.36-2.51,5.14-6.26,8.14-5.07,1.4.55-2.66,29.51-2.66,29.51S165.87,100.84,164.21,102.22Z" transform="translate(-24.75 -14.63)"/><g id="Bowl_body" data-name="Bowl body"><path d="M121.81,139.43c-10.35,1.73-19.89,1.46-28.37-.81a50.54,50.54,0,0,1-8.14-2.93,51.94,51.94,0,0,1-17.38-13.13,63.52,63.52,0,0,1-5.56-7.4,81.41,81.41,0,0,1-9.2-20.27c-.14-.47-1.21-4.72-1.75-7a15.08,15.08,0,0,1,.07-2.68l1.2-.56,0,.07c2.78,4.47,10.4,7.78,21.43,9.33,11.35,1.6,25.5,1.15,39.82-1.25s27.83-6.6,38-11.82c9.4-4.8,15.38-10.09,17-15a8.37,8.37,0,0,0,.23-.82l.23-1,1.7,1.12a68.56,68.56,0,0,1,1,9.45,80.91,80.91,0,0,1-2.07,22.39,62.14,62.14,0,0,1-2.84,8.81,51.22,51.22,0,0,1-15.82,21.3c-1,.77-2,1.52-3,2.22C141.1,134.32,132.16,137.69,121.81,139.43ZM52.7,83.85a103.42,103.42,0,0,0,9.93,24.66,74.57,74.57,0,0,0,5.56,8.37c7,9.05,15.38,15.26,25,18.46,8.32,2.76,17.66,3.3,27.76,1.6s18.75-5.25,25.71-10.57c1-.77,2-1.58,2.9-2.41a53.32,53.32,0,0,0,14.73-23.22A74.64,74.64,0,0,0,166.85,91a102.54,102.54,0,0,0,1.51-23.67,10.27,10.27,0,0,0,.56-3,8.89,8.89,0,0,0-1-2.5c-.81.06-.8.3-1-.62C160.09,72.85,138.86,83.58,112.75,88,86.92,92.3,63.57,89.2,53.14,80.65c.42.64-.36,1.06-.58,1.59-.15.35.32.86.21,1.14A.75.75,0,0,0,52.7,83.85Z" transform="translate(-24.75 -14.63)"/><path d="M170.32,64.84c0,1.54-.53,2.81-1.27,2.83a2.9,2.9,0,0,1-1.81-1.14c-.22-.46.41-1.23.4-1.63,0-1.54.53-2.81,1.27-2.83S170.28,63.29,170.32,64.84Z" transform="translate(-24.75 -14.63)"/></g></g><g id="Face"><circle class="cls-16" cx="73.91" cy="97.55" r="7.78"/><circle class="cls-4" cx="74.25" cy="94.08" r="3.22"/><path class="cls-4" d="M98.34,115a1.11,1.11,0,1,1-1.39-.74A1.11,1.11,0,0,1,98.34,115Z" transform="translate(-24.75 -14.63)"/><circle class="cls-16" cx="108.17" cy="92.31" r="7.78"/><path class="cls-16" d="M124.27,97.3a.83.83,0,0,1-.66-.13.85.85,0,0,1-.22-1.19,11.24,11.24,0,0,1,14.91-3.33.85.85,0,1,1-.86,1.47A9.52,9.52,0,0,0,124.79,97,.86.86,0,0,1,124.27,97.3Z" transform="translate(-24.75 -14.63)"/><circle class="cls-4" cx="105.95" cy="89.62" r="3.22"/><path class="cls-4" d="M134.78,109.11a1.11,1.11,0,1,0,.74-1.39A1.11,1.11,0,0,0,134.78,109.11Z" transform="translate(-24.75 -14.63)"/><path class="cls-16" d="M103.7,100.13a.83.83,0,0,1-.61-.14,9.53,9.53,0,0,0-12.83,1.86.85.85,0,0,1-1.33-1.07,11.22,11.22,0,0,1,15.13-2.19.85.85,0,0,1,.21,1.18A.88.88,0,0,1,103.7,100.13Z" transform="translate(-24.75 -14.63)"/><path class="cls-9" d="M109.29,122.34c-2.28-.34-4.54,1.24-3.9,3.43,1.22,4.2,7.14,7.94,14.08,6.63s11.15-6.83,10.81-11.18c-.17-2.28-2.85-3-4.86-1.83A25.38,25.38,0,0,1,109.29,122.34Z" transform="translate(-24.75 -14.63)"/></g></g></g></svg>