<svg id="visual" viewBox="0 0 2560 960" width="2560" height="960" xmlns="http://www.w3.org/2000/svg" xmlns:xlink="http://www.w3.org/1999/xlink" version="1.1"><path d="M0 323L21.3 365.7C42.7 408.3 85.3 493.7 128 477.8C170.7 462 213.3 345 256 316.5C298.7 288 341.3 348 384 349.3C426.7 350.7 469.3 293.3 512 246.5C554.7 199.7 597.3 163.3 640 250.7C682.7 338 725.3 549 768 587.5C810.7 626 853.3 492 896 438.2C938.7 384.3 981.3 410.7 1024 419.2C1066.7 427.7 1109.3 418.3 1152 461.2C1194.7 504 1237.3 599 1280 580C1322.7 561 1365.3 428 1408 421.2C1450.7 414.3 1493.3 533.7 1536 602.8C1578.7 672 1621.3 691 1664 643.8C1706.7 596.7 1749.3 483.3 1792 440.7C1834.7 398 1877.3 426 1920 472.8C1962.7 519.7 2005.3 585.3 2048 624.8C2090.7 664.3 2133.3 677.7 2176 676.2C2218.7 674.7 2261.3 658.3 2304 646.3C2346.7 634.3 2389.3 626.7 2432 614.3C2474.7 602 2517.3 585 2538.7 576.5L2560 568L2560 961L2538.7 961C2517.3 961 2474.7 961 2432 961C2389.3 961 2346.7 961 2304 961C2261.3 961 2218.7 961 2176 961C2133.3 961 2090.7 961 2048 961C2005.3 961 1962.7 961 1920 961C1877.3 961 1834.7 961 1792 961C1749.3 961 1706.7 961 1664 961C1621.3 961 1578.7 961 1536 961C1493.3 961 1450.7 961 1408 961C1365.3 961 1322.7 961 1280 961C1237.3 961 1194.7 961 1152 961C1109.3 961 1066.7 961 1024 961C981.3 961 938.7 961 896 961C853.3 961 810.7 961 768 961C725.3 961 682.7 961 640 961C597.3 961 554.7 961 512 961C469.3 961 426.7 961 384 961C341.3 961 298.7 961 256 961C213.3 961 170.7 961 128 961C85.3 961 42.7 961 21.3 961L0 961Z" fill="#9C86FB" stroke-linecap="round" stroke-linejoin="miter"></path></svg>