<svg id="visual" viewBox="0 0 2560 960" width="2560" height="960" xmlns="http://www.w3.org/2000/svg" xmlns:xlink="http://www.w3.org/1999/xlink" version="1.1"><path d="M0 841L22.5 836.8C45 832.7 90 824.3 134.8 837.7C179.7 851 224.3 886 269.2 857.2C314 828.3 359 735.7 404 732C449 728.3 494 813.7 539 825C584 836.3 629 773.7 673.8 768.5C718.7 763.3 763.3 815.7 808.2 814C853 812.3 898 756.7 943 722.2C988 687.7 1033 674.3 1078 699.3C1123 724.3 1168 787.7 1212.8 805.8C1257.7 824 1302.3 797 1347.2 740C1392 683 1437 596 1482 593C1527 590 1572 671 1617 683.7C1662 696.3 1707 640.7 1751.8 633.8C1796.7 627 1841.3 669 1886.2 676.8C1931 684.7 1976 658.3 2021 697.8C2066 737.3 2111 842.7 2156 845.7C2201 848.7 2246 749.3 2290.8 683.8C2335.7 618.3 2380.3 586.7 2425.2 561.3C2470 536 2515 517 2537.5 507.5L2560 498L2560 961L2537.5 961C2515 961 2470 961 2425.2 961C2380.3 961 2335.7 961 2290.8 961C2246 961 2201 961 2156 961C2111 961 2066 961 2021 961C1976 961 1931 961 1886.2 961C1841.3 961 1796.7 961 1751.8 961C1707 961 1662 961 1617 961C1572 961 1527 961 1482 961C1437 961 1392 961 1347.2 961C1302.3 961 1257.7 961 1212.8 961C1168 961 1123 961 1078 961C1033 961 988 961 943 961C898 961 853 961 808.2 961C763.3 961 718.7 961 673.8 961C629 961 584 961 539 961C494 961 449 961 404 961C359 961 314 961 269.2 961C224.3 961 179.7 961 134.8 961C90 961 45 961 22.5 961L0 961Z" fill="#5B41D6" stroke-linecap="round" stroke-linejoin="miter"></path></svg>