<svg id="visual" viewBox="0 0 2560 960" width="2560" height="960" xmlns="http://www.w3.org/2000/svg" xmlns:xlink="http://www.w3.org/1999/xlink" version="1.1"><path d="M0 671L30.5 625.3C61 579.7 122 488.3 183 501.7C244 515 305 633 366 705.5C427 778 488 805 548.8 779.5C609.7 754 670.3 676 731.2 627.5C792 579 853 560 914 604.2C975 648.3 1036 755.7 1097 728.7C1158 701.7 1219 540.3 1280 523.7C1341 507 1402 635 1463 621.2C1524 607.3 1585 451.7 1646 457.8C1707 464 1768 632 1828.8 631.7C1889.7 631.3 1950.3 462.7 2011.2 462C2072 461.3 2133 628.7 2194 710.7C2255 792.7 2316 789.3 2377 774.3C2438 759.3 2499 732.7 2529.5 719.3L2560 706L2560 961L2529.5 961C2499 961 2438 961 2377 961C2316 961 2255 961 2194 961C2133 961 2072 961 2011.2 961C1950.3 961 1889.7 961 1828.8 961C1768 961 1707 961 1646 961C1585 961 1524 961 1463 961C1402 961 1341 961 1280 961C1219 961 1158 961 1097 961C1036 961 975 961 914 961C853 961 792 961 731.2 961C670.3 961 609.7 961 548.8 961C488 961 427 961 366 961C305 961 244 961 183 961C122 961 61 961 30.5 961L0 961Z" fill="#6B4EF4" stroke-linecap="round" stroke-linejoin="miter"></path></svg>