<svg id="visual" viewBox="0 0 2560 960" width="2560" height="960" xmlns="http://www.w3.org/2000/svg" xmlns:xlink="http://www.w3.org/1999/xlink" version="1.1"><path d="M0 850L22.5 854.5C45 859 90 868 134.8 841.8C179.7 815.7 224.3 754.3 269.2 722.5C314 690.7 359 688.3 404 720.5C449 752.7 494 819.3 539 835.8C584 852.3 629 818.7 673.8 821.7C718.7 824.7 763.3 864.3 808.2 874.8C853 885.3 898 866.7 943 862C988 857.3 1033 866.7 1078 854C1123 841.3 1168 806.7 1212.8 772.8C1257.7 739 1302.3 706 1347.2 718.7C1392 731.3 1437 789.7 1482 800C1527 810.3 1572 772.7 1617 759.8C1662 747 1707 759 1751.8 787C1796.7 815 1841.3 859 1886.2 870.8C1931 882.7 1976 862.3 2021 831.5C2066 800.7 2111 759.3 2156 771.8C2201 784.3 2246 850.7 2290.8 857.3C2335.7 864 2380.3 811 2425.2 807.7C2470 804.3 2515 850.7 2537.5 873.8L2560 897L2560 961L2537.5 961C2515 961 2470 961 2425.2 961C2380.3 961 2335.7 961 2290.8 961C2246 961 2201 961 2156 961C2111 961 2066 961 2021 961C1976 961 1931 961 1886.2 961C1841.3 961 1796.7 961 1751.8 961C1707 961 1662 961 1617 961C1572 961 1527 961 1482 961C1437 961 1392 961 1347.2 961C1302.3 961 1257.7 961 1212.8 961C1168 961 1123 961 1078 961C1033 961 988 961 943 961C898 961 853 961 808.2 961C763.3 961 718.7 961 673.8 961C629 961 584 961 539 961C494 961 449 961 404 961C359 961 314 961 269.2 961C224.3 961 179.7 961 134.8 961C90 961 45 961 22.5 961L0 961Z" fill="#4C34B8" stroke-linecap="round" stroke-linejoin="miter"></path></svg>