<svg id="visual" viewBox="0 0 2560 960" width="2560" height="960" xmlns="http://www.w3.org/2000/svg" xmlns:xlink="http://www.w3.org/1999/xlink" version="1.1"><path d="M0 188L21.3 287.3C42.7 386.7 85.3 585.3 128 633C170.7 680.7 213.3 577.3 256 518.7C298.7 460 341.3 446 384 498.7C426.7 551.3 469.3 670.7 512 709.2C554.7 747.7 597.3 705.3 640 654C682.7 602.7 725.3 542.3 768 538C810.7 533.7 853.3 585.3 896 595.2C938.7 605 981.3 573 1024 573.3C1066.7 573.7 1109.3 606.3 1152 574C1194.7 541.7 1237.3 444.3 1280 449.2C1322.7 454 1365.3 561 1408 596.8C1450.7 632.7 1493.3 597.3 1536 572.3C1578.7 547.3 1621.3 532.7 1664 475.5C1706.7 418.3 1749.3 318.7 1792 304.3C1834.7 290 1877.3 361 1920 432.8C1962.7 504.7 2005.3 577.3 2048 592.5C2090.7 607.7 2133.3 565.3 2176 527.8C2218.7 490.3 2261.3 457.7 2304 443.7C2346.7 429.7 2389.3 434.3 2432 418.5C2474.7 402.7 2517.3 366.3 2538.7 348.2L2560 330L2560 961L2538.7 961C2517.3 961 2474.7 961 2432 961C2389.3 961 2346.7 961 2304 961C2261.3 961 2218.7 961 2176 961C2133.3 961 2090.7 961 2048 961C2005.3 961 1962.7 961 1920 961C1877.3 961 1834.7 961 1792 961C1749.3 961 1706.7 961 1664 961C1621.3 961 1578.7 961 1536 961C1493.3 961 1450.7 961 1408 961C1365.3 961 1322.7 961 1280 961C1237.3 961 1194.7 961 1152 961C1109.3 961 1066.7 961 1024 961C981.3 961 938.7 961 896 961C853.3 961 810.7 961 768 961C725.3 961 682.7 961 640 961C597.3 961 554.7 961 512 961C469.3 961 426.7 961 384 961C341.3 961 298.7 961 256 961C213.3 961 170.7 961 128 961C85.3 961 42.7 961 21.3 961L0 961Z" fill="#856BF8" stroke-linecap="round" stroke-linejoin="miter"></path></svg>