<svg id="visual" viewBox="0 0 1024 960" width="1024" height="960" xmlns="http://www.w3.org/2000/svg" xmlns:xlink="http://www.w3.org/1999/xlink" version="1.1"><path d="M0 97L42.7 91.2C85.3 85.3 170.7 73.7 256 73.5C341.3 73.3 426.7 84.7 512 91.5C597.3 98.3 682.7 100.7 768 95.5C853.3 90.3 938.7 77.7 981.3 71.3L1024 65L1024 0L981.3 0C938.7 0 853.3 0 768 0C682.7 0 597.3 0 512 0C426.7 0 341.3 0 256 0C170.7 0 85.3 0 42.7 0L0 0Z" fill="#4c34b8" stroke-linecap="round" stroke-linejoin="miter"></path></svg>