<svg id="visual" viewBox="0 0 1024 960" width="1024" height="960" xmlns="http://www.w3.org/2000/svg" xmlns:xlink="http://www.w3.org/1999/xlink" version="1.1"><path d="M0 701L42.7 719.7C85.3 738.3 170.7 775.7 256 690C341.3 604.3 426.7 395.7 512 349.8C597.3 304 682.7 421 768 443.5C853.3 466 938.7 394 981.3 358L1024 322L1024 961L981.3 961C938.7 961 853.3 961 768 961C682.7 961 597.3 961 512 961C426.7 961 341.3 961 256 961C170.7 961 85.3 961 42.7 961L0 961Z" fill="#4c34b8" stroke-linecap="round" stroke-linejoin="miter"></path></svg>