<svg id="visual" viewBox="0 0 1536 960" width="1536" height="960" xmlns="http://www.w3.org/2000/svg" xmlns:xlink="http://www.w3.org/1999/xlink" version="1.1"><path d="M0 176L51.2 179.5C102.3 183 204.7 190 307 181.8C409.3 173.7 511.7 150.3 614.2 129.5C716.7 108.7 819.3 90.3 921.8 86.3C1024.3 82.3 1126.7 92.7 1229 109.7C1331.3 126.7 1433.7 150.3 1484.8 162.2L1536 174L1536 0L1484.8 0C1433.7 0 1331.3 0 1229 0C1126.7 0 1024.3 0 921.8 0C819.3 0 716.7 0 614.2 0C511.7 0 409.3 0 307 0C204.7 0 102.3 0 51.2 0L0 0Z" fill="#4c34b8" stroke-linecap="round" stroke-linejoin="miter"></path></svg>