<svg id="visual" viewBox="0 0 2560 960" width="2560" height="960" xmlns="http://www.w3.org/2000/svg" xmlns:xlink="http://www.w3.org/1999/xlink" version="1.1"><path d="M0 781L42.7 782.5C85.3 784 170.7 787 256 800.8C341.3 814.7 426.7 839.3 512 808.5C597.3 777.7 682.7 691.3 768 674.8C853.3 658.3 938.7 711.7 1024 752C1109.3 792.3 1194.7 819.7 1280 802C1365.3 784.3 1450.7 721.7 1536 728C1621.3 734.3 1706.7 809.7 1792 846C1877.3 882.3 1962.7 879.7 2048 833.8C2133.3 788 2218.7 699 2304 702.8C2389.3 706.7 2474.7 803.3 2517.3 851.7L2560 900L2560 961L2517.3 961C2474.7 961 2389.3 961 2304 961C2218.7 961 2133.3 961 2048 961C1962.7 961 1877.3 961 1792 961C1706.7 961 1621.3 961 1536 961C1450.7 961 1365.3 961 1280 961C1194.7 961 1109.3 961 1024 961C938.7 961 853.3 961 768 961C682.7 961 597.3 961 512 961C426.7 961 341.3 961 256 961C170.7 961 85.3 961 42.7 961L0 961Z" fill="#4c34b8" stroke-linecap="round" stroke-linejoin="miter"></path></svg>