<?xml version="1.0" encoding="utf-8"?>
<!-- Generator: Adobe Illustrator 24.1.0, SVG Export Plug-In . SVG Version: 6.00 Build 0)  -->
<svg version="1.1" id="visual" xmlns="http://www.w3.org/2000/svg" xmlns:xlink="http://www.w3.org/1999/xlink" x="0px" y="0px"
	 viewBox="0 0 540 960" style="enable-background:new 0 0 540 960;" xml:space="preserve">
<style type="text/css">
	.st0{fill:#5B41D6;}
</style>
<path class="st0" d="M0,799.3l10-7.2c10-7.1,30-21.5,50-32s40-17,60-8.2c20,9,40,33.4,60,38.9c20,5.4,40-8.2,60-7s40,17,60,26.8
	c20,9.7,40,13.2,60,1.2c20-12.1,40-39.6,60-46.6c20-7,40,6.5,60,21.1s40,30.2,50,37.8l10,7.8V960h-10c-10,0-30,0-50,0s-40,0-60,0
	s-40,0-60,0s-40,0-60,0s-40,0-60,0s-40,0-60,0s-40,0-60,0s-40,0-60,0s-40,0-50,0H0V799.3z"/>
</svg>
