<?xml version="1.0" encoding="utf-8"?>
<!-- Generator: Adobe Illustrator 24.1.0, SVG Export Plug-In . SVG Version: 6.00 Build 0)  -->
<svg version="1.1" id="visual" xmlns="http://www.w3.org/2000/svg" xmlns:xlink="http://www.w3.org/1999/xlink" x="0px" y="0px"
	 viewBox="0 0 1024 1366" style="enable-background:new 0 0 1024 1366;" xml:space="preserve">
<style type="text/css">
	.st0{fill:#6B4EF4;}
</style>
<path class="st0" d="M0,1047l17-3c17-3,51-9,85.2-19.3c34.1-10.4,68.5-25,102.6-36.9C239,976,273,967,307.2,975.2
	c34.1,8.1,68.5,33.5,102.6,52c34.2,18.5,68.2,30.1,102.2,42.8s68,26.3,102.2,20.3c34.1-6,68.5-31.6,102.6-44.1
	c34.2-12.5,68.2-11.9,102.4-22.2c34.1-10.3,68.5-31.7,102.6-31.5c34.2,0.2,68.2,21.8,85.2,32.7l17,10.8v330h-17c-17,0-51,0-85.2,0
	c-34.1,0-68.5,0-102.6,0c-34.2,0-68.2,0-102.4,0c-34.1,0-68.5,0-102.6,0c-34.2,0-68.2,0-102.2,0s-68,0-102.2,0
	c-34.1,0-68.5,0-102.6,0c-34.2,0-68.2,0-102.4,0c-34.1,0-68.5,0-102.6,0c-34.2,0-68.2,0-85.2,0H0V1047z"/>
</svg>
