<?xml version="1.0" encoding="utf-8"?>
<!-- Generator: Adobe Illustrator 24.1.0, SVG Export Plug-In . SVG Version: 6.00 Build 0)  -->
<svg version="1.1" id="visual" xmlns="http://www.w3.org/2000/svg" xmlns:xlink="http://www.w3.org/1999/xlink" x="0px" y="0px"
	 viewBox="0 0 1024 1366" style="enable-background:new 0 0 1024 1366;" xml:space="preserve">
<style type="text/css">
	.st0{fill:#4C34B8;}
</style>
<path class="st0" d="M0,1157l17,14.2c17,14.1,51,42.5,85.2,45c34.1,2.5,68.5-20.9,102.6-13.2c34.2,7.7,68.2,46.3,102.4,43.3
	c34.1-3,68.5-47.6,102.6-62.5C444,1169,478,1184,512,1195.3c34,11.4,68,19,102.2,24.5c34.1,5.5,68.5,8.9,102.6,1.4
	c34.2-7.5,68.2-25.9,102.4-20.2c34.1,5.7,68.5,35.3,102.6,31c34.2-4.3,68.2-42.7,85.2-61.8l17-19.2v215h-17c-17,0-51,0-85.2,0
	c-34.1,0-68.5,0-102.6,0c-34.2,0-68.2,0-102.4,0c-34.1,0-68.5,0-102.6,0c-34.2,0-68.2,0-102.2,0s-68,0-102.2,0
	c-34.1,0-68.5,0-102.6,0c-34.2,0-68.2,0-102.4,0c-34.1,0-68.5,0-102.6,0c-34.2,0-68.2,0-85.2,0H0V1157z"/>
</svg>
