<?xml version="1.0" encoding="utf-8"?>
<!-- Generator: Adobe Illustrator 24.1.0, SVG Export Plug-In . SVG Version: 6.00 Build 0)  -->
<svg version="1.1" id="visual" xmlns="http://www.w3.org/2000/svg" xmlns:xlink="http://www.w3.org/1999/xlink" x="0px" y="0px"
	 viewBox="0 0 1024 1366" style="enable-background:new 0 0 1024 1366;" xml:space="preserve">
<style type="text/css">
	.st0{fill:#9C86FB;}
</style>
<path class="st0" d="M0,837l17,21.7c17,21.6,51,65,85.2,77.1c34.1,12.2,68.5-6.8,102.6-10c34.2-3.1,68.2,9.5,102.4,2.5
	c34.1-7,68.5-33.6,102.6-64.6c34.2-31,68.2-66.4,102.2-76.4s68,5.4,102.2,18.7c34.1,13.3,68.5,24.7,102.6,22.8
	c34.2-1.8,68.2-16.8,102.4-26c34.1-9.1,68.5-12.5,102.6-35.6C956,744,990,701,1007,679.5l17-21.5v708h-17c-17,0-51,0-85.2,0
	c-34.1,0-68.5,0-102.6,0c-34.2,0-68.2,0-102.4,0c-34.1,0-68.5,0-102.6,0c-34.2,0-68.2,0-102.2,0s-68,0-102.2,0
	c-34.1,0-68.5,0-102.6,0c-34.2,0-68.2,0-102.4,0c-34.1,0-68.5,0-102.6,0c-34.2,0-68.2,0-85.2,0H0V837z"/>
</svg>
