<svg id="visual" viewBox="0 0 1536 960" width="1536" height="960" xmlns="http://www.w3.org/2000/svg" xmlns:xlink="http://www.w3.org/1999/xlink" version="1.1"><path d="M0 818L12.8 840.3C25.7 862.7 51.3 907.3 77 907.8C102.7 908.3 128.3 864.7 153.8 847C179.3 829.3 204.7 837.7 230.2 851.2C255.7 864.7 281.3 883.3 307 882C332.7 880.7 358.3 859.3 384 844.8C409.7 830.3 435.3 822.7 461 818.8C486.7 815 512.3 815 537.8 835.5C563.3 856 588.7 897 614.2 908.8C639.7 920.7 665.3 903.3 691 899.3C716.7 895.3 742.3 904.7 768 890.2C793.7 875.7 819.3 837.3 845 824.8C870.7 812.3 896.3 825.7 921.8 849C947.3 872.3 972.7 905.7 998.2 924C1023.7 942.3 1049.3 945.7 1075 936.3C1100.7 927 1126.3 905 1152 878.8C1177.7 852.7 1203.3 822.3 1229 826.8C1254.7 831.3 1280.3 870.7 1305.8 893.7C1331.3 916.7 1356.7 923.3 1382.2 921.2C1407.7 919 1433.3 908 1459 895.8C1484.7 883.7 1510.3 870.3 1523.2 863.7L1536 857L1536 961L1523.2 961C1510.3 961 1484.7 961 1459 961C1433.3 961 1407.7 961 1382.2 961C1356.7 961 1331.3 961 1305.8 961C1280.3 961 1254.7 961 1229 961C1203.3 961 1177.7 961 1152 961C1126.3 961 1100.7 961 1075 961C1049.3 961 1023.7 961 998.2 961C972.7 961 947.3 961 921.8 961C896.3 961 870.7 961 845 961C819.3 961 793.7 961 768 961C742.3 961 716.7 961 691 961C665.3 961 639.7 961 614.2 961C588.7 961 563.3 961 537.8 961C512.3 961 486.7 961 461 961C435.3 961 409.7 961 384 961C358.3 961 332.7 961 307 961C281.3 961 255.7 961 230.2 961C204.7 961 179.3 961 153.8 961C128.3 961 102.7 961 77 961C51.3 961 25.7 961 12.8 961L0 961Z" fill="#4C34B8" stroke-linecap="round" stroke-linejoin="miter"></path></svg>