<svg id="visual" viewBox="0 0 1536 960" width="1536" height="960" xmlns="http://www.w3.org/2000/svg" xmlns:xlink="http://www.w3.org/1999/xlink" version="1.1"><path d="M0 887L15 883C30 879 60 871 90.2 860.5C120.3 850 150.7 837 180.8 832.3C211 827.7 241 831.3 271 810.8C301 790.3 331 745.7 361.2 761.3C391.3 777 421.7 853 451.8 888.8C482 924.7 512 920.3 542 909.7C572 899 602 882 632.2 851.5C662.3 821 692.7 777 722.8 782C753 787 783 841 813.2 867.5C843.3 894 873.7 893 903.8 884.2C934 875.3 964 858.7 994 839.3C1024 820 1054 798 1084.2 779.2C1114.3 760.3 1144.7 744.7 1174.8 735.2C1205 725.7 1235 722.3 1265 750.8C1295 779.3 1325 839.7 1355.2 839.3C1385.3 839 1415.7 778 1445.8 761.7C1476 745.3 1506 773.7 1521 787.8L1536 802L1536 961L1521 961C1506 961 1476 961 1445.8 961C1415.7 961 1385.3 961 1355.2 961C1325 961 1295 961 1265 961C1235 961 1205 961 1174.8 961C1144.7 961 1114.3 961 1084.2 961C1054 961 1024 961 994 961C964 961 934 961 903.8 961C873.7 961 843.3 961 813.2 961C783 961 753 961 722.8 961C692.7 961 662.3 961 632.2 961C602 961 572 961 542 961C512 961 482 961 451.8 961C421.7 961 391.3 961 361.2 961C331 961 301 961 271 961C241 961 211 961 180.8 961C150.7 961 120.3 961 90.2 961C60 961 30 961 15 961L0 961Z" fill="#5B41D6" stroke-linecap="round" stroke-linejoin="miter"></path></svg>