<svg id="visual" viewBox="0 0 1536 960" width="1536" height="960" xmlns="http://www.w3.org/2000/svg" xmlns:xlink="http://www.w3.org/1999/xlink" version="1.1"><path d="M0 782L15 770.7C30 759.3 60 736.7 90.2 722.3C120.3 708 150.7 702 180.8 686C211 670 241 644 271 629.2C301 614.3 331 610.7 361.2 635.3C391.3 660 421.7 713 451.8 715.8C482 718.7 512 671.3 542 693.5C572 715.7 602 807.3 632.2 798.5C662.3 789.7 692.7 680.3 722.8 661.3C753 642.3 783 713.7 813.2 725C843.3 736.3 873.7 687.7 903.8 649.3C934 611 964 583 994 555.3C1024 527.7 1054 500.3 1084.2 551.7C1114.3 603 1144.7 733 1174.8 750.7C1205 768.3 1235 673.7 1265 613.5C1295 553.3 1325 527.7 1355.2 580.3C1385.3 633 1415.7 764 1445.8 769.5C1476 775 1506 655 1521 595L1536 535L1536 961L1521 961C1506 961 1476 961 1445.8 961C1415.7 961 1385.3 961 1355.2 961C1325 961 1295 961 1265 961C1235 961 1205 961 1174.8 961C1144.7 961 1114.3 961 1084.2 961C1054 961 1024 961 994 961C964 961 934 961 903.8 961C873.7 961 843.3 961 813.2 961C783 961 753 961 722.8 961C692.7 961 662.3 961 632.2 961C602 961 572 961 542 961C512 961 482 961 451.8 961C421.7 961 391.3 961 361.2 961C331 961 301 961 271 961C241 961 211 961 180.8 961C150.7 961 120.3 961 90.2 961C60 961 30 961 15 961L0 961Z" fill="#6B4EF4" stroke-linecap="round" stroke-linejoin="miter"></path></svg>