<svg id="visual" viewBox="0 0 1536 960" width="1536" height="960" xmlns="http://www.w3.org/2000/svg" xmlns:xlink="http://www.w3.org/1999/xlink" version="1.1"><path d="M0 507L17 504.5C34 502 68 497 102.2 557.3C136.3 617.7 170.7 743.3 204.8 800C239 856.7 273 844.3 307.2 817C341.3 789.7 375.7 747.3 409.8 712.3C444 677.3 478 649.7 512 612.3C546 575 580 528 614.2 556.7C648.3 585.3 682.7 689.7 716.8 711.7C751 733.7 785 673.3 819.2 662.8C853.3 652.3 887.7 691.7 921.8 701.8C956 712 990 693 1024 679.2C1058 665.3 1092 656.7 1126.2 661.7C1160.3 666.7 1194.7 685.3 1228.8 663.7C1263 642 1297 580 1331.2 560.8C1365.3 541.7 1399.7 565.3 1433.8 586.8C1468 608.3 1502 627.7 1519 637.3L1536 647L1536 961L1519 961C1502 961 1468 961 1433.8 961C1399.7 961 1365.3 961 1331.2 961C1297 961 1263 961 1228.8 961C1194.7 961 1160.3 961 1126.2 961C1092 961 1058 961 1024 961C990 961 956 961 921.8 961C887.7 961 853.3 961 819.2 961C785 961 751 961 716.8 961C682.7 961 648.3 961 614.2 961C580 961 546 961 512 961C478 961 444 961 409.8 961C375.7 961 341.3 961 307.2 961C273 961 239 961 204.8 961C170.7 961 136.3 961 102.2 961C68 961 34 961 17 961L0 961Z" fill="#856BF8" stroke-linecap="round" stroke-linejoin="miter"></path></svg>