<svg id="visual" viewBox="0 0 1536 960" width="1536" height="960" xmlns="http://www.w3.org/2000/svg" xmlns:xlink="http://www.w3.org/1999/xlink" version="1.1"><path d="M0 638L17 652.5C34 667 68 696 102.2 669C136.3 642 170.7 559 204.8 492.5C239 426 273 376 307.2 378.5C341.3 381 375.7 436 409.8 482.3C444 528.7 478 566.3 512 624.2C546 682 580 760 614.2 751.3C648.3 742.7 682.7 647.3 716.8 606.8C751 566.3 785 580.7 819.2 546.2C853.3 511.7 887.7 428.3 921.8 415.7C956 403 990 461 1024 511.5C1058 562 1092 605 1126.2 581.2C1160.3 557.3 1194.7 466.7 1228.8 464.2C1263 461.7 1297 547.3 1331.2 537.2C1365.3 527 1399.7 421 1433.8 373.7C1468 326.3 1502 337.7 1519 343.3L1536 349L1536 961L1519 961C1502 961 1468 961 1433.8 961C1399.7 961 1365.3 961 1331.2 961C1297 961 1263 961 1228.8 961C1194.7 961 1160.3 961 1126.2 961C1092 961 1058 961 1024 961C990 961 956 961 921.8 961C887.7 961 853.3 961 819.2 961C785 961 751 961 716.8 961C682.7 961 648.3 961 614.2 961C580 961 546 961 512 961C478 961 444 961 409.8 961C375.7 961 341.3 961 307.2 961C273 961 239 961 204.8 961C170.7 961 136.3 961 102.2 961C68 961 34 961 17 961L0 961Z" fill="#9C86FB" stroke-linecap="round" stroke-linejoin="miter"></path></svg>