<svg id="visual" viewBox="0 0 540 64" width="540" height="64" xmlns="http://www.w3.org/2000/svg" xmlns:xlink="http://www.w3.org/1999/xlink" version="1.1"><path d="M0 27L12.8 24.2C25.7 21.3 51.3 15.7 77 17.2C102.7 18.7 128.3 27.3 154 28.8C179.7 30.3 205.3 24.7 231.2 25.2C257 25.7 283 32.3 308.8 38.3C334.7 44.3 360.3 49.7 386 45C411.7 40.3 437.3 25.7 463 25C488.7 24.3 514.3 37.7 527.2 44.3L540 51L540 65L527.2 65C514.3 65 488.7 65 463 65C437.3 65 411.7 65 386 65C360.3 65 334.7 65 308.8 65C283 65 257 65 231.2 65C205.3 65 179.7 65 154 65C128.3 65 102.7 65 77 65C51.3 65 25.7 65 12.8 65L0 65Z" fill="#4c34b8" stroke-linecap="round" stroke-linejoin="miter"></path></svg>