<svg id="visual" viewBox="0 0 540 960" width="540" height="960" xmlns="http://www.w3.org/2000/svg" xmlns:xlink="http://www.w3.org/1999/xlink" version="1.1"><path d="M0 539L18 535.7C36 532.3 72 525.7 108 539.3C144 553 180 587 216 606.5C252 626 288 631 324 623C360 615 396 594 432 595.7C468 597.3 504 621.7 522 633.8L540 646L540 961L522 961C504 961 468 961 432 961C396 961 360 961 324 961C288 961 252 961 216 961C180 961 144 961 108 961C72 961 36 961 18 961L0 961Z" fill="#4c34b8" stroke-linecap="round" stroke-linejoin="miter"></path></svg>